<svg xmlns="http://www.w3.org/2000/svg" viewBox="0 0 1000 258.43"><defs><style>.cls-1{fill:#28235d;}.cls-2{fill:#00a3ad;}</style></defs><g id="Layer_2" data-name="Layer 2"><g id="Layer_1-2" data-name="Layer 1"><path class="cls-1" d="M412.19,59.59H368.35l-7.77,15.34H342.86L381.31,2.38h18.13l38.45,72.55H420Zm-6.94-13.48-15-29.53-15,29.53Z"/><path class="cls-1" d="M512.09,68.08l9.33,10.06-9,7.77L501.21,73.79a62.39,62.39,0,0,1-21.46,3.41c-28.29,0-46.11-14.3-46.11-38.55S451.46.1,479.75.1s46.12,14.3,46.12,38.55C525.87,51.4,520.9,61.45,512.09,68.08ZM490,61.76,480.38,51.4l9-7.88,11.92,12.86c5-4.05,7.67-10.06,7.67-17.73,0-15.54-11.3-24.25-29.23-24.25s-29.22,8.71-29.22,24.25S461.72,62.9,479.75,62.9A44.69,44.69,0,0,0,490,61.76Z"/><path class="cls-1" d="M615.82,2.38V40.73c0,21.76-14.41,36.47-40.73,36.47s-40.73-14.71-40.73-36.47V2.38h16.58v37.1c0,14.51,8.5,23.22,24.15,23.22S599.24,54,599.24,39.48V2.38Z"/><path class="cls-1" d="M684.31,59.59H640.47L632.7,74.93H615L653.43,2.38h18.14L710,74.93H692.09Zm-6.94-13.48-15-29.53-15,29.53Z"/><path class="cls-1" d="M786.69,60.62V74.93H718.81V2.38H735.4V60.62Z"/><path class="cls-1" d="M797.26,74.93V2.38h16.58V74.93Z"/><path class="cls-1" d="M907.73,53c0,14.3-13.58,24.24-39.28,24.24-18.34,0-33.27-5.18-44.35-14.61l9.53-11.29c8.91,8.18,20.42,12,35.23,12S891,60.52,891,54.51s-7.46-7.67-24.14-9.12c-20.73-1.76-40-6.32-40-21.87C826.89,8.39,843.06.1,865.45.1,881.3.1,895,4,904.2,11.19l-9.11,11.5c-8-6.11-17.83-8.6-29.64-8.7-9.85-.11-21.87,1.66-21.87,8.29,0,6.22,10.36,6.84,24.77,8C891.46,32.12,907.73,37,907.73,53Z"/><path class="cls-2" d="M420.44,154.33c0,13.27-10.47,19.9-27.26,19.9H342.82V101.68h48.29c14.72,0,25.18,6.22,25.18,18.45,0,8.29-4.87,16-15.54,16.79C412,137.65,420.44,142.2,420.44,154.33Zm-69-21.14h38.45c10.36,0,17.72-2.7,17.72-11.82s-7.36-11.81-17.72-11.81H351.42Zm60,20.52c0-9-7.36-12.64-19.79-12.64H351.42v25.28h40.21C404.06,166.35,411.42,162.62,411.42,153.71Z"/><path class="cls-2" d="M506.77,174.23l-24-27.77H448.21v27.77H439.4V101.69h48.71c16.17,0,27.78,8.08,27.78,22.38,0,12.65-9.12,20.52-22.49,22.08l24.77,28.08Zm-19.28-35.85c11.71,0,19.48-4.46,19.48-14.31s-7.77-14.3-19.48-14.3H448.11v28.61Z"/><path class="cls-2" d="M599.21,154.75H550.29l-10.57,19.48h-9.64L570,101.69h9.74l39.9,72.54h-9.84ZM595,146.87l-20.21-37.2-20.21,37.2Z"/><path class="cls-2" d="M700.44,166.15v8.08H630.28V101.69H699.4v8.08H639V133.3h51.2v8.08H639v24.77Z"/><path class="cls-2" d="M807.38,101.69v72.54h-8.7V113.92l-36.9,44.66h-.62l-36.89-44.66v60.31h-8.5V101.69h9.53L761.68,146l36.37-44.35Z"/><path class="cls-2" d="M890.09,154.75H841.17L830.6,174.24H821l39.9-72.55h9.74l39.9,72.55h-9.84Zm-4.25-7.87-20.21-37.21-20.21,37.21Z"/><path class="cls-2" d="M988.6,174.24l-24-27.78H930.05v27.78h-8.81V101.69H970c16.16,0,27.77,8.09,27.77,22.39,0,12.64-9.12,20.52-22.49,22.07L1000,174.24Zm-19.28-35.86c11.71,0,19.49-4.46,19.49-14.3s-7.78-14.3-19.49-14.3H929.94v28.6Z"/><path class="cls-1" d="M74.21,41.67l31.68,57.94H42.53ZM20.26,139.28,0,175.53H148.41l-20.26-36.25Zm231.86-37.82Q246.27,91.91,234,83.91A45.61,45.61,0,0,0,245.27,69.5a40,40,0,0,0,3.57-17.27,44.76,44.76,0,0,0-3.28-16.55A42.7,42.7,0,0,0,236,21.12,64.26,64.26,0,0,0,212.59,5.57,79.53,79.53,0,0,0,182.91,0H102.75l22,39.67h55.6A19.43,19.43,0,0,1,193.19,44a13.26,13.26,0,0,1,5.13,10.56,12.32,12.32,0,0,1-4.56,9.85q-4.57,3.86-12.28,3.85H140.57L161,105h27.64q8.28,0,13.41,4.28a13.24,13.24,0,0,1,5.14,10.56A14.62,14.62,0,0,1,202,131.29a18.57,18.57,0,0,1-12.84,4.57H178.08l21.66,39.08A86.47,86.47,0,0,0,225,168.82q15.84-6.7,24.4-18.55a44.86,44.86,0,0,0,8.56-27A41,41,0,0,0,252.12,101.46Z"/><path class="cls-1" d="M371.91,249.34l-4.1-9.37H352.05l-4.1,9.37h-5.13l14.54-32.15h5.45l14.54,32.15Zm-12-27.74-6,14.23h12.2Z"/><path class="cls-1" d="M400.77,258.43V246.05h-.09a8,8,0,0,1-3.69,3,13,13,0,0,1-5.27,1.06,14.39,14.39,0,0,1-6.49-1.46,11.11,11.11,0,0,1-4.64-4.35,13.84,13.84,0,0,1,0-13.33,11.29,11.29,0,0,1,4.64-4.32,14.15,14.15,0,0,1,6.49-1.49,13.41,13.41,0,0,1,5.27,1.06,8.49,8.49,0,0,1,3.69,2.77h.09v-3.29h4.5v32.69Zm-17.11-20.75a8.71,8.71,0,0,0,2.36,6.39,8.55,8.55,0,0,0,6.28,2.3,8.15,8.15,0,0,0,8.74-8.69,8.87,8.87,0,0,0-2.34-6.33,8.5,8.5,0,0,0-6.4-2.36,8.3,8.3,0,0,0-6.37,2.43A8.78,8.78,0,0,0,383.66,237.68Z"/><path class="cls-1" d="M430,249.34v-3.56h-.09a9.27,9.27,0,0,1-4,3.38,13.31,13.31,0,0,1-5.2,1q-4.73,0-7.31-2.14a7.56,7.56,0,0,1-2.6-6.19V225.74h4.51v15.18A4.92,4.92,0,0,0,417,245a9.76,9.76,0,0,0,10.76-.45,6.51,6.51,0,0,0,2.25-5.18v-13.6h4.51v23.6Z"/><path class="cls-1" d="M466.1,249.34a17.26,17.26,0,0,1-1.75.2c-.63.05-1.22.07-1.76.07a4.73,4.73,0,0,1-2.88-.72,3.64,3.64,0,0,1-1.17-2.57,9,9,0,0,1-4.05,2.75,16.5,16.5,0,0,1-6,1.08c-3.19,0-5.58-.65-7.19-1.94a6.3,6.3,0,0,1-2.4-5.18,5.77,5.77,0,0,1,2.4-5.11q2.42-1.63,7.73-2.22l5.13-.55a7.56,7.56,0,0,0,3-.72,2.18,2.18,0,0,0,1.08-2.11,3.13,3.13,0,0,0-1.65-2.95,10.87,10.87,0,0,0-5.15-.92,9.88,9.88,0,0,0-5.36,1.19,4.1,4.1,0,0,0-1.94,3.49h-4.23q.45-4.32,3.36-6.26c1.93-1.29,4.72-1.94,8.35-1.94,3.45,0,6.12.57,8,1.69a5.49,5.49,0,0,1,2.84,5v12.7a1.8,1.8,0,0,0,2,2,7.43,7.43,0,0,0,.78-.05,5.66,5.66,0,0,0,.79-.13ZM458.27,237a3.37,3.37,0,0,1-1.49.86,16.57,16.57,0,0,1-2.92.54l-5.09.63a10,10,0,0,0-4.06,1.21,3,3,0,0,0-1.3,2.66,3.18,3.18,0,0,0,1.48,2.68,6.83,6.83,0,0,0,4,1.06,11.6,11.6,0,0,0,6.71-1.89,5.71,5.71,0,0,0,2.66-4.73Z"/><path class="cls-1" d="M469.16,249.34V216.92h4.51v32.42Z"/><path class="cls-1" d="M479.16,221.87v-5h4.5v5Zm0,27.47v-23.6h4.5v23.6Z"/><path class="cls-1" d="M506.45,232.86a4,4,0,0,0-1.94-3.18,9.18,9.18,0,0,0-5.13-1.23,9.41,9.41,0,0,0-4.48.92,2.9,2.9,0,0,0-1.74,2.68,2.34,2.34,0,0,0,.84,2,6.75,6.75,0,0,0,3.08,1l6.4.86q4.45.67,6.34,2.21a5,5,0,0,1,1.89,4.05,6.73,6.73,0,0,1-3.1,6q-3.11,2.06-8.74,2.05a21,21,0,0,1-6-.77,8.93,8.93,0,0,1-4.21-2.61,8,8,0,0,1-1.86-4.86h4.5a4,4,0,0,0,1.91,3.4,9.7,9.7,0,0,0,5.52,1.33,11.58,11.58,0,0,0,5.38-1,3,3,0,0,0,1.82-2.71,2.39,2.39,0,0,0-1-2.09,8.53,8.53,0,0,0-3.46-1.06l-7.44-1a8.17,8.17,0,0,1-4.57-2,5.51,5.51,0,0,1-1.82-4.24A6.51,6.51,0,0,1,491.5,227c1.89-1.36,4.53-2,7.92-2q5.37,0,8.29,2.07a7.61,7.61,0,0,1,3.24,5.86Z"/><path class="cls-1" d="M516.58,249.34V217.19h17.87c3.31,0,5.78.69,7.43,2.07a7.38,7.38,0,0,1,2.48,6,7.27,7.27,0,0,1-1.17,4.25,7,7,0,0,1-3.51,2.55v.09a7.82,7.82,0,0,1,4.46,2.56,8.13,8.13,0,0,1,1.62,5.36,8.91,8.91,0,0,1-2.8,6.69,10.3,10.3,0,0,1-7.38,2.59Zm4.77-28v9.14h13a5.52,5.52,0,0,0,3.9-1.24,4.22,4.22,0,0,0,1.33-3.26,4.48,4.48,0,0,0-1.29-3.45,6.1,6.1,0,0,0-4.21-1.19Zm0,13.28V245.2h12.93a7.9,7.9,0,0,0,5-1.36,4.83,4.83,0,0,0,1.76-4.09,4.6,4.6,0,0,0-1.67-3.81,7.3,7.3,0,0,0-4.64-1.33Z"/><path class="cls-1" d="M550.89,249.34v-23.6h4.5v4.33h.09a10.56,10.56,0,0,1,3.65-3.92,8.67,8.67,0,0,1,4.46-1.22,9.35,9.35,0,0,1,2.56.27v4.87a11.23,11.23,0,0,0-3.19-.45,7.56,7.56,0,0,0-5.45,2,7.74,7.74,0,0,0-2.12,5.76v12Z"/><path class="cls-1" d="M595.33,249.34a17.26,17.26,0,0,1-1.75.2c-.64.05-1.22.07-1.76.07a4.73,4.73,0,0,1-2.88-.72,3.64,3.64,0,0,1-1.17-2.57,9,9,0,0,1-4.06,2.75,16.41,16.41,0,0,1-6,1.08q-4.79,0-7.18-1.94a6.28,6.28,0,0,1-2.41-5.18,5.75,5.75,0,0,1,2.41-5.11q2.4-1.63,7.72-2.22l5.13-.55a7.6,7.6,0,0,0,3-.72,2.18,2.18,0,0,0,1.08-2.11,3.13,3.13,0,0,0-1.65-2.95,10.87,10.87,0,0,0-5.15-.92,9.88,9.88,0,0,0-5.36,1.19,4.1,4.1,0,0,0-1.94,3.49h-4.23q.45-4.32,3.36-6.26t8.35-1.94c3.45,0,6.12.57,8,1.69a5.49,5.49,0,0,1,2.84,5v12.7a1.79,1.79,0,0,0,2,2,7.6,7.6,0,0,0,.78-.05,5.66,5.66,0,0,0,.79-.13ZM587.5,237a3.37,3.37,0,0,1-1.49.86,16.53,16.53,0,0,1-2.93.54L578,239a10,10,0,0,0-4.06,1.21,3,3,0,0,0-1.3,2.66,3.18,3.18,0,0,0,1.48,2.68,6.83,6.83,0,0,0,4,1.06,11.6,11.6,0,0,0,6.71-1.89A5.71,5.71,0,0,0,587.5,240Z"/><path class="cls-1" d="M602.13,238.89a7.54,7.54,0,0,0,2.73,5.36,9.11,9.11,0,0,0,6,2.12,9.7,9.7,0,0,0,4.69-1.08,6.72,6.72,0,0,0,2.92-3.11h4.77a12.34,12.34,0,0,1-4.79,5.85,13.25,13.25,0,0,1-7.36,2.12q-6.48,0-10.09-3.58a13.1,13.1,0,0,1,0-18.06q3.63-3.52,10.07-3.58a14,14,0,0,1,6.39,1.47,11,11,0,0,1,4.66,4.45,14.68,14.68,0,0,1,1.74,7.46v.58Zm16.93-3.51a7.54,7.54,0,0,0-2.79-4.93,8.64,8.64,0,0,0-5.45-1.73,8.94,8.94,0,0,0-5.63,1.84,7.62,7.62,0,0,0-2.92,4.82Z"/><path class="cls-1" d="M664.27,249.34v-15a5.62,5.62,0,0,0-1.46-4.18,5.76,5.76,0,0,0-4.21-1.44,8.9,8.9,0,0,0-5.56,1.66,5.54,5.54,0,0,0-2.19,4.68v14.28h-4.5v-15a5.62,5.62,0,0,0-1.46-4.18,5.78,5.78,0,0,0-4.21-1.44,8.2,8.2,0,0,0-5.54,1.89,6.41,6.41,0,0,0-2.21,5.13v13.6h-4.5v-23.6h4.5v3.56H633a9.19,9.19,0,0,1,4-3.35,13.14,13.14,0,0,1,5.22-1,10,10,0,0,1,4.48,1,8.84,8.84,0,0,1,3.54,3.33,11.28,11.28,0,0,1,3.91-3.2,12.51,12.51,0,0,1,5.63-1.17,13.05,13.05,0,0,1,2.19.25,10.38,10.38,0,0,1,2.74,1,7.34,7.34,0,0,1,2.39,1.91,6.68,6.68,0,0,1,1.31,2.57,11.27,11.27,0,0,1,.33,2.63v16.08Z"/><path class="cls-1" d="M700.39,249.34c-.55.09-1.13.16-1.76.2s-1.22.07-1.76.07a4.73,4.73,0,0,1-2.88-.72,3.64,3.64,0,0,1-1.17-2.57,9,9,0,0,1-4.06,2.75,16.37,16.37,0,0,1-6,1.08c-3.18,0-5.58-.65-7.18-1.94a6.28,6.28,0,0,1-2.41-5.18,5.75,5.75,0,0,1,2.41-5.11c1.6-1.09,4.18-1.83,7.72-2.22l5.13-.55a7.56,7.56,0,0,0,3-.72,2.18,2.18,0,0,0,1.08-2.11,3.14,3.14,0,0,0-1.64-2.95,10.94,10.94,0,0,0-5.16-.92,9.88,9.88,0,0,0-5.36,1.19,4.09,4.09,0,0,0-1.93,3.49h-4.24q.45-4.32,3.36-6.26c1.93-1.29,4.72-1.94,8.35-1.94,3.45,0,6.12.57,8,1.69a5.47,5.47,0,0,1,2.84,5v12.7a1.8,1.8,0,0,0,2,2,7.79,7.79,0,0,0,.79-.05,6.2,6.2,0,0,0,.79-.13ZM692.55,237a3.37,3.37,0,0,1-1.49.86,16.57,16.57,0,0,1-2.92.54l-5.09.63a9.92,9.92,0,0,0-4,1.21,2.94,2.94,0,0,0-1.31,2.66,3.17,3.17,0,0,0,1.49,2.68,6.8,6.8,0,0,0,4,1.06,11.57,11.57,0,0,0,6.71-1.89,5.71,5.71,0,0,0,2.66-4.73Z"/><path class="cls-1" d="M703.44,249.34v-23.6H708v4.33H708a10.54,10.54,0,0,1,3.64-3.92,8.7,8.7,0,0,1,4.46-1.22,9.43,9.43,0,0,1,2.57.27v4.87a11.3,11.3,0,0,0-3.2-.45,7.56,7.56,0,0,0-5.45,2,7.73,7.73,0,0,0-2.11,5.76v12Z"/><path class="cls-1" d="M737.71,249.34V217.19h4.77v28H762v4.14Z"/><path class="cls-1" d="M764.14,233.26a18.39,18.39,0,0,1,1.94-8.39,14.53,14.53,0,0,1,5.92-6.15,22.63,22.63,0,0,1,19.9-.07,14.49,14.49,0,0,1,6,6.15,19.26,19.26,0,0,1,0,16.93,14.59,14.59,0,0,1-6,6.15,22.76,22.76,0,0,1-19.88,0,14.41,14.41,0,0,1-6-6.17A18.55,18.55,0,0,1,764.14,233.26Zm4.78,0q0,6,3.57,9.37T782,246q6,0,9.55-3.4t3.55-9.35q0-5.94-3.53-9.32T782,220.52q-6,0-9.55,3.42T768.92,233.26Z"/><path class="cls-1" d="M836.28,237.05a13.62,13.62,0,0,1-2.5,6.59,14.82,14.82,0,0,1-5.65,4.78,17.76,17.76,0,0,1-7.93,1.73,19.78,19.78,0,0,1-6.93-1.19,15,15,0,0,1-5.43-3.43,14.39,14.39,0,0,1-3.37-5.33,20.09,20.09,0,0,1-1.15-7,18.49,18.49,0,0,1,1.93-8.55,14.46,14.46,0,0,1,5.72-6,18.25,18.25,0,0,1,9.19-2.25,21.65,21.65,0,0,1,7.49,1.3,13.54,13.54,0,0,1,5.9,4.08,12.45,12.45,0,0,1,2.73,7H831.5a9.1,9.1,0,0,0-3.46-6,11.87,11.87,0,0,0-7.52-2.25q-6,0-9.19,3.42t-3.24,9.73a13.82,13.82,0,0,0,1.49,6.51,10.14,10.14,0,0,0,4.21,4.34,13.29,13.29,0,0,0,6.46,1.49,11.49,11.49,0,0,0,7.4-2.28,11.33,11.33,0,0,0,3.85-6.68Z"/><path class="cls-1" d="M885.76,249.34l-.81-4.59a14.79,14.79,0,0,1-5.49,4.14,17.6,17.6,0,0,1-6.84,1.26,21.83,21.83,0,0,1-5.39-.61,16,16,0,0,1-4.65-2,13.64,13.64,0,0,1-3.88-3.7,15.31,15.31,0,0,1-2.34-4.93,19.4,19.4,0,0,1-.72-5.09,21.69,21.69,0,0,1,.94-6.55,15.57,15.57,0,0,1,3-5.4,15,15,0,0,1,5.33-3.92,18.72,18.72,0,0,1,7.59-1.55q6.62,0,10.76,2.74a12.94,12.94,0,0,1,5.41,8.2h-5a9.34,9.34,0,0,0-3.73-5.11,15.23,15.23,0,0,0-13.67-.14,10.55,10.55,0,0,0-4.28,4.51,14.83,14.83,0,0,0-1.51,6.82q0,6.07,3.36,9.34t9.16,3.27a12.72,12.72,0,0,0,8.31-2.68,10.23,10.23,0,0,0,3.71-7.18H874.42V232h14.77v17.34Z"/><path class="cls-1" d="M895.26,249.34v-23.6h4.51v4.33h.09a10.54,10.54,0,0,1,3.64-3.92,8.7,8.7,0,0,1,4.46-1.22,9.43,9.43,0,0,1,2.57.27v4.87a11.3,11.3,0,0,0-3.2-.45,7.56,7.56,0,0,0-5.45,2,7.73,7.73,0,0,0-2.11,5.76v12Z"/><path class="cls-1" d="M912.56,237.54a12.16,12.16,0,0,1,3.66-9.09q3.63-3.48,10-3.52t10,3.52a13.16,13.16,0,0,1,0,18.19q-3.6,3.47-10,3.51t-10.06-3.54A12.22,12.22,0,0,1,912.56,237.54Zm4.77,0a8.92,8.92,0,0,0,2.41,6.42,10,10,0,0,0,13,0,9,9,0,0,0,2.39-6.42,8.23,8.23,0,0,0-8.92-8.82,8.7,8.7,0,0,0-6.5,2.4A8.92,8.92,0,0,0,917.33,237.54Z"/><path class="cls-1" d="M963.62,249.34v-3.56h-.09a9.38,9.38,0,0,1-4,3.38,13.35,13.35,0,0,1-5.2,1c-3.15,0-5.6-.71-7.32-2.14a7.55,7.55,0,0,1-2.59-6.19V225.74h4.5v15.18a4.9,4.9,0,0,0,1.72,4.05,9.74,9.74,0,0,0,10.75-.45,6.49,6.49,0,0,0,2.26-5.18v-13.6h4.5v23.6Z"/><path class="cls-1" d="M973.61,258.43V225.74h4.5V229h.09a8.52,8.52,0,0,1,3.7-2.77,13.34,13.34,0,0,1,5.27-1.06,14.11,14.11,0,0,1,6.48,1.49,11.29,11.29,0,0,1,4.64,4.32,13.88,13.88,0,0,1,0,13.35,11.12,11.12,0,0,1-4.64,4.33,14.35,14.35,0,0,1-6.48,1.46,13.54,13.54,0,0,1-5.23-1,8.64,8.64,0,0,1-3.74-2.82h-.09v12.11Zm13-29.44a8.48,8.48,0,0,0-6.39,2.36,8.82,8.82,0,0,0-2.34,6.33,8.62,8.62,0,0,0,2.42,6.37,8.72,8.72,0,0,0,6.31,2.32,8.56,8.56,0,0,0,6.28-2.28A9.82,9.82,0,0,0,993,231.4,8.33,8.33,0,0,0,986.58,229Z"/></g></g></svg>