<svg xmlns="http://www.w3.org/2000/svg" viewBox="0 0 699.27 600"><defs><style>.cls-1{fill:#3382aa;}.cls-2{fill:#78ccd0;}.cls-3{fill:#252a60;}</style></defs><g id="Layer_2" data-name="Layer 2"><g id="Layer_1-2" data-name="Layer 1"><path class="cls-1" d="M155.12,399.52a55,55,0,0,1-54.88,54.88h0v20.26h0a75.58,75.58,0,0,0,75.14-75.14Z"/><path class="cls-1" d="M100.24,419h0a19.57,19.57,0,0,0,19.5-19.5h-19.5Z"/><path class="cls-1" d="M126.17,399.52a26,26,0,0,1-25.93,25.93h0v22.68h0a48.54,48.54,0,0,0,48.46-48.46H126Z"/><path class="cls-1" d="M100.24,553.66h0V600l25-48.15A151.78,151.78,0,0,1,100.24,553.66Z"/><path class="cls-1" d="M128.89,544.29l21.24-41.2a113.9,113.9,0,0,1-49.89,11.49h0v32.5h0A149,149,0,0,0,128.89,544.29Z"/><path class="cls-1" d="M155.27,493.18l48.31-93.66H181.81a81.65,81.65,0,0,1-81.57,81.57h0V508.3h0A107.25,107.25,0,0,0,155.27,493.18Z"/><path class="cls-2" d="M25.1,399.52H45.36a55,55,0,0,1,54.88-54.88V324.38A75.59,75.59,0,0,0,25.1,399.52Z"/><path class="cls-2" d="M51.78,399.52H74.46a26,26,0,0,1,25.93-25.93V350.91a48.54,48.54,0,0,0-48.61,48.46Z"/><path class="cls-2" d="M80.74,399.52h19.5V380A19.5,19.5,0,0,0,80.74,399.52Z"/><path class="cls-2" d="M17.76,328.69,0,399.52H18.67A81.65,81.65,0,0,1,100.24,318V290.66A108.68,108.68,0,0,0,17.76,328.69Z"/><path class="cls-2" d="M20.94,316.06a114.94,114.94,0,0,1,79.3-31.82V251.73A147.42,147.42,0,0,0,33,268.06Z"/><path class="cls-2" d="M100.24,245.31V0L35,260A153.46,153.46,0,0,1,100.24,245.31Z"/><path class="cls-3" d="M164.42,372.38H131.54v-2.95c8.39-.45,10.13-2.94,10.13-13.38V289.68c0-8.39-2.57-10.73-10.13-11.19v-2.95h32.88v2.95c-8.54,0-11.49,2.2-11.49,12.63v66c0,9.22,2.19,12.32,11.49,12.32Z"/><path class="cls-3" d="M257,373.44l-70.53-84.36V355.9c0,11.19,2.2,13.53,13.69,13.53v2.95H168.73v-2.95h.6c8.39,0,11.12-3.25,11.12-10.43V282.35A18.3,18.3,0,0,0,169,278.49v-2.95h21.24L254.15,352V290c0-9.45-2.42-11.18-13.3-11.49v-2.95H272.6v2.95c-10.21,0-12.33,2-12.33,8.09v86.86Z"/><path class="cls-3" d="M354,373.44l-70.23-84.36V355.9c0,11.19,2.2,13.53,13.69,13.53v2.95H266v-2.95h.53c8.47,0,11.11-3.25,11.11-10.43V282.35a17.86,17.86,0,0,0-11.34-3.86v-2.95h20.94L351.14,352V290c0-9.45-2.49-11.18-13.3-11.49v-2.95h31.75v2.95c-10.21,0-12.4,2-12.4,8.09v86.86Z"/><path class="cls-3" d="M416.68,374.88a47.78,47.78,0,0,1-48.91-46.62c0-.71,0-1.43,0-2.14,0-31,20.71-52.92,49.59-52.92A47.4,47.4,0,0,1,465,320.37v.91C465,352.8,443,374.88,416.68,374.88Zm-2.8-97.82c-23.88,0-33.33,25.55-33.33,44.22,0,29.18,17.16,49.74,39,49.74s32.66-22.68,32.66-44.6C452.21,297.47,436.26,277.06,413.88,277.06Z"/><path class="cls-3" d="M472.47,348.72a24.64,24.64,0,0,0,22.68,21.92A17.92,17.92,0,0,0,514,353.74c0-.49,0-1,0-1.47,0-22.67-43.54-29.25-43.54-56.47a22.66,22.66,0,0,1,22.62-22.72c.52,0,1.05,0,1.57.05,11.34,0,13.68,3.85,18.37,3.85,1.13,0,1.66,0,2.49-1.51h2.12L520,295.2h-2.34a24.5,24.5,0,0,0-21.77-18.37,14.2,14.2,0,0,0-15.1,13.27,13,13,0,0,0,0,1.4c0,22.07,43.46,28,43.46,56.69a26.38,26.38,0,0,1-26.12,26.64l-1.47,0a99.52,99.52,0,0,1-18.9-4.38,3.15,3.15,0,0,0-2.64,1.74h-2.35l-2.87-23.67Z"/><path class="cls-3" d="M588.06,337.38h-2.57c-1.14-11.11-3.41-12.32-9.23-12.32H553.58v33.19c0,7.1,2.27,8.54,7.56,8.54h20.94c9.45,0,12.33-4.23,15.73-17.62h2.42l-3,23.21H525.54v-2.95h3.63c10.88,0,12.77-3.4,12.77-12.77V291c0-8.77-1.81-12.48-10.88-12.48h-2.95v-2.95H593.2l1,21.63h-2.41c-1.82-13.23-5.22-16-10.06-16H553.36v38.33h24.26c4.84,0,7.56-2.65,7.56-11.72h2.57Z"/><path class="cls-3" d="M626.08,329.44l-7.56,24.42a46.54,46.54,0,0,0-2.72,9.83c0,4.16,3.55,5.74,11,5.74H629v2.95H597.2v-2.95c8.77,0,10.28-1.89,14.67-15.11l24.64-77.41-1.21-3.41h11.8l28.27,86.41c2.72,8.24,5.59,9.83,12.4,9.83v2.94H650.65v-2.94h3.48c7.56,0,10.58-.91,10.58-5.3A20.26,20.26,0,0,0,663.2,358l-9.07-28.27Zm13.83-43.16-11.56,36.29h23.51Z"/><path d="M231.52,411.31l10.57,27.44h-5.15l-2.58-7.26h-11l-2.57,7.26h-5l10.53-27.44ZM228.87,416l-4.15,11.8h8.38L229,416Z"/><path d="M252,418.34q4.46,0,6.15,3.23h.08v-2.69h4.15v27.21H258v-9.91H258q-2.11,3.1-6.65,3.11a7.7,7.7,0,0,1-6.19-2.85,13.06,13.06,0,0,1,.14-15.23A8.58,8.58,0,0,1,252,418.34Zm-4.92,10.5a8.18,8.18,0,0,0,1.46,5.09,4.8,4.8,0,0,0,4,1.9,4.92,4.92,0,0,0,4.15-1.84,10.16,10.16,0,0,0,0-10.36,4.94,4.94,0,0,0-4.15-1.83,4.87,4.87,0,0,0-3.9,1.94A7.76,7.76,0,0,0,247.12,428.84Z"/><path d="M271.18,418.88v12.34q0,4.61,3.8,4.61,4.88,0,4.88-5.26V418.88h4.38v19.87h-4.3V436h-.08a6.32,6.32,0,0,1-2.42,2.42,6.43,6.43,0,0,1-3.27.89q-3.84,0-5.6-1.9c-1.19-1.27-1.77-3.17-1.77-5.71v-12.8Z"/><path d="M297.16,418.34a10,10,0,0,1,5.8,1.56,4.87,4.87,0,0,1,2.15,4.09v10.46a1.86,1.86,0,0,0,.23,1.07,1.16,1.16,0,0,0,1,.31,4.08,4.08,0,0,0,.92-.08v3a11.81,11.81,0,0,1-2.76.5c-1.95,0-3.08-.81-3.38-2.42a7.9,7.9,0,0,1-3,1.77,12,12,0,0,1-3.86.65,7.29,7.29,0,0,1-5-1.61,5.32,5.32,0,0,1-1.84-4.19,5.48,5.48,0,0,1,1.57-4.21q1.57-1.48,5.92-2l1.8-.23a16.05,16.05,0,0,0,2.83-.5,2.08,2.08,0,0,0,1.13-.79,2.25,2.25,0,0,0,.35-1.29q0-2.64-4.11-2.69T292.51,425h-4.38a6.26,6.26,0,0,1,2.53-4.93A10.88,10.88,0,0,1,297.16,418.34Zm-5.38,14.76a2.31,2.31,0,0,0,1,2,4.64,4.64,0,0,0,2.73.73,6.3,6.3,0,0,0,3.73-1,3.1,3.1,0,0,0,1.46-2.61V428.8a6.57,6.57,0,0,1-3,.88l-1.88.23Q291.78,430.38,291.78,433.1Z"/><path d="M314,411.31v27.44h-4.38V411.31Z"/><path d="M322.82,411.31v4.15h-4.38v-4.15Zm0,7.57v19.87h-4.38V418.88Z"/><path d="M334.85,418.34a9.84,9.84,0,0,1,5.79,1.56,6,6,0,0,1,2.51,4.56h-4.57c-.33-1.77-1.68-2.66-4-2.66a5.78,5.78,0,0,0-2.62.52,1.64,1.64,0,0,0-1,1.52,1.92,1.92,0,0,0,1.07,1.69,13,13,0,0,0,4,1.19,14.85,14.85,0,0,1,6,2.15,4.64,4.64,0,0,1,1.87,4,5.51,5.51,0,0,1-2.42,4.71,10.79,10.79,0,0,1-6.46,1.75,10.16,10.16,0,0,1-6.38-1.81,6.26,6.26,0,0,1-2.42-5.11h4.38q.39,3.47,4.5,3.46c2.94,0,4.42-.83,4.42-2.5a2.28,2.28,0,0,0-1.52-2.05A19,19,0,0,0,333,430q-6.45-1.23-6.46-5.92a4.75,4.75,0,0,1,2.29-4.17A10.71,10.71,0,0,1,334.85,418.34Z"/><path d="M360.87,411.31a8.73,8.73,0,0,1,5.9,1.81,6.23,6.23,0,0,1,2.09,5,6,6,0,0,1-3.92,5.84V424a6.08,6.08,0,0,1,3.83,2.4,7.9,7.9,0,0,1,1.32,4.67,6.71,6.71,0,0,1-2.59,5.61q-2.6,2-7.32,2h-12.8V411.31Zm-.77,11.49a4.17,4.17,0,0,0,2.81-1,3.56,3.56,0,0,0,1.15-2.86c0-2.48-1.29-3.73-3.88-3.73h-8v7.57Zm.69,12a4.64,4.64,0,0,0,3.29-1.13,4.18,4.18,0,0,0,1.21-3.21,3.92,3.92,0,0,0-1.25-3.17,4.82,4.82,0,0,0-3.25-1.06h-8.61v8.57Z"/><path d="M383.43,418.34a6.44,6.44,0,0,1,1.65.12v4.23a10.75,10.75,0,0,0-1.88-.19,4.75,4.75,0,0,0-3.94,1.94,7.56,7.56,0,0,0-1.44,4.7v9.61h-4.38V418.88h4.11v3.85h.08a5.39,5.39,0,0,1,2.28-3.12A6.48,6.48,0,0,1,383.43,418.34Z"/><path d="M395.26,418.34a10,10,0,0,1,5.8,1.56,4.9,4.9,0,0,1,2.16,4.09v10.46a1.78,1.78,0,0,0,.23,1.07c.15.21.47.31,1,.31a4.08,4.08,0,0,0,.92-.08v3a11.87,11.87,0,0,1-2.77.5c-1.94,0-3.07-.81-3.38-2.42a7.85,7.85,0,0,1-3,1.77,12,12,0,0,1-3.87.65,7.28,7.28,0,0,1-4.95-1.61,5.33,5.33,0,0,1-1.85-4.19,5.49,5.49,0,0,1,1.58-4.21q1.57-1.48,5.91-2l1.81-.23a16.05,16.05,0,0,0,2.83-.5,2.12,2.12,0,0,0,1.13-.79,2.25,2.25,0,0,0,.35-1.29q0-2.64-4.12-2.69T390.61,425h-4.38a6.27,6.27,0,0,1,2.54-4.93A10.87,10.87,0,0,1,395.26,418.34Zm-5.38,14.76a2.32,2.32,0,0,0,1,2,4.62,4.62,0,0,0,2.73.73,6.32,6.32,0,0,0,3.73-1,3.1,3.1,0,0,0,1.46-2.61V428.8a6.61,6.61,0,0,1-3,.88l-1.89.23Q389.88,430.38,389.88,433.1Z"/><path d="M416.21,418.34a9.29,9.29,0,0,1,4.92,1.37,9.41,9.41,0,0,1,3.28,3.57,11,11,0,0,1,1.25,5.17c0,.39,0,.89-.07,1.5H411a6.08,6.08,0,0,0,1.48,4.25,5,5,0,0,0,3.86,1.63,5.22,5.22,0,0,0,3.14-.86,4.93,4.93,0,0,0,1.71-2.44h4.15a7.9,7.9,0,0,1-3.12,4.91,9.85,9.85,0,0,1-5.88,1.85,9.23,9.23,0,0,1-7.05-2.81,10.84,10.84,0,0,1-2.67-7.61,11.37,11.37,0,0,1,1.37-5.61,9.36,9.36,0,0,1,3.45-3.67A9.81,9.81,0,0,1,416.21,418.34Zm5,8.73a6.06,6.06,0,0,0-1.58-3.77,4.73,4.73,0,0,0-3.46-1.5,4.78,4.78,0,0,0-3.59,1.44,6,6,0,0,0-1.6,3.83Z"/><path d="M438.92,418.34a6.85,6.85,0,0,1,3.44.85,4.81,4.81,0,0,1,2.13,2.46,7.27,7.27,0,0,1,6.27-3.31q6.6,0,6.61,6.54v13.87H453v-12c0-2-.28-3.32-.86-4a3.5,3.5,0,0,0-2.75-1c-2.82,0-4.22,1.72-4.22,5.15v11.8h-4.38V425.84a5.2,5.2,0,0,0-.74-2.94,3,3,0,0,0-2.72-1.1,4,4,0,0,0-3.14,1.44,5.31,5.31,0,0,0-1.24,3.6v11.91h-4.39V418.88h4.16v2.77h.11a7.63,7.63,0,0,1,2.59-2.52A7.32,7.32,0,0,1,438.92,418.34Z"/><path d="M470.28,418.34a10,10,0,0,1,5.8,1.56,4.87,4.87,0,0,1,2.15,4.09v10.46a1.86,1.86,0,0,0,.23,1.07,1.16,1.16,0,0,0,1,.31,4.08,4.08,0,0,0,.92-.08v3a11.81,11.81,0,0,1-2.76.5c-1.95,0-3.08-.81-3.38-2.42a7.9,7.9,0,0,1-3,1.77,11.94,11.94,0,0,1-3.86.65,7.29,7.29,0,0,1-5-1.61,5.32,5.32,0,0,1-1.84-4.19,5.48,5.48,0,0,1,1.57-4.21c1.05-1,3-1.65,5.92-2l1.81-.23a16.08,16.08,0,0,0,2.82-.5,2.08,2.08,0,0,0,1.13-.79,2.25,2.25,0,0,0,.35-1.29q0-2.64-4.11-2.69T465.63,425h-4.38a6.26,6.26,0,0,1,2.53-4.93A10.88,10.88,0,0,1,470.28,418.34ZM464.9,433.1a2.31,2.31,0,0,0,1,2,4.66,4.66,0,0,0,2.73.73,6.3,6.3,0,0,0,3.73-1,3.1,3.1,0,0,0,1.46-2.61V428.8a6.57,6.57,0,0,1-3,.88l-1.88.23Q464.9,430.38,464.9,433.1Z"/><path d="M492.57,418.34a6.44,6.44,0,0,1,1.65.12v4.23a10.76,10.76,0,0,0-1.89-.19,4.74,4.74,0,0,0-3.93,1.94,7.56,7.56,0,0,0-1.45,4.7v9.61h-4.38V418.88h4.11v3.85h.08a5.45,5.45,0,0,1,2.29-3.12A6.48,6.48,0,0,1,492.57,418.34Z"/><path d="M511.43,411.31V434.6h13.95v4.15H506.63V411.31Z"/><path d="M540,410.66a12.21,12.21,0,0,1,9.47,4,16.34,16.34,0,0,1,0,20.64,13.13,13.13,0,0,1-19,0,16.36,16.36,0,0,1,0-20.6A12.2,12.2,0,0,1,540,410.66ZM531.65,425a12,12,0,0,0,2.23,7.55,7.26,7.26,0,0,0,6.11,2.9,7.33,7.33,0,0,0,6.09-2.86,13.93,13.93,0,0,0,0-15.18,7.38,7.38,0,0,0-6.11-2.86,7.24,7.24,0,0,0-6.07,2.88A12,12,0,0,0,531.65,425Z"/><path d="M568.81,410.66a12.41,12.41,0,0,1,8.05,2.57,9.67,9.67,0,0,1,3.59,6.81h-4.8q-1.42-5.46-6.84-5.46a7.29,7.29,0,0,0-6.11,2.88,12,12,0,0,0-2.23,7.57,11.75,11.75,0,0,0,2.3,7.63,7.43,7.43,0,0,0,6,2.82,6.3,6.3,0,0,0,4.78-1.92,8.8,8.8,0,0,0,2.21-5.26h4.69a12.19,12.19,0,0,1-3.5,8,11.12,11.12,0,0,1-8.18,3.07,12.28,12.28,0,0,1-9.44-4,16.41,16.41,0,0,1,0-20.7A12.18,12.18,0,0,1,568.81,410.66Z"/><path d="M606.66,410.66a12.61,12.61,0,0,1,8,2.48,10,10,0,0,1,3.75,6.9h-4.69a5.71,5.71,0,0,0-2.36-4,7.75,7.75,0,0,0-4.71-1.48,7.32,7.32,0,0,0-6.07,2.88,13.86,13.86,0,0,0,0,15.2,7.54,7.54,0,0,0,6.22,2.82,7.34,7.34,0,0,0,5.54-2,7.92,7.92,0,0,0,2-5.54H607V424.3h11.69v14.45h-3.08l-.73-3.23a11.65,11.65,0,0,1-3.67,3,10.38,10.38,0,0,1-4.59.92,12.18,12.18,0,0,1-9.47-4,16.32,16.32,0,0,1,0-20.62A12.16,12.16,0,0,1,606.66,410.66Z"/><path d="M632.94,418.34a6.48,6.48,0,0,1,1.66.12v4.23a10.76,10.76,0,0,0-1.89-.19,4.77,4.77,0,0,0-3.94,1.94,7.56,7.56,0,0,0-1.44,4.7v9.61H623V418.88h4.11v3.85h.08a5.41,5.41,0,0,1,2.29-3.12A6.48,6.48,0,0,1,632.94,418.34Z"/><path d="M644.51,418.34a9.64,9.64,0,0,1,7.24,2.87,11.82,11.82,0,0,1,0,15.23,10.71,10.71,0,0,1-14.56,0,11.91,11.91,0,0,1,0-15.2A9.6,9.6,0,0,1,644.51,418.34Zm-5.65,10.46a7.93,7.93,0,0,0,1.56,5,5.2,5.2,0,0,0,8.2,0,8,8,0,0,0,1.54-5,7.89,7.89,0,0,0-1.54-5.08,5,5,0,0,0-4.15-1.92,4.93,4.93,0,0,0-4.07,2A7.91,7.91,0,0,0,638.86,428.8Z"/><path d="M662.19,418.88v12.34q0,4.61,3.8,4.61c3.26,0,4.88-1.75,4.88-5.26V418.88h4.39v19.87H671V436h-.08a6.32,6.32,0,0,1-2.42,2.42,6.43,6.43,0,0,1-3.27.89q-3.84,0-5.6-1.9t-1.77-5.71v-12.8Z"/><path d="M690,418.34a8.47,8.47,0,0,1,6.82,2.91,11.35,11.35,0,0,1,2.48,7.66,11.57,11.57,0,0,1-2.32,7.5,7.61,7.61,0,0,1-6.25,2.88,9.48,9.48,0,0,1-4-.81,5.75,5.75,0,0,1-2.66-2.3H684v9.91H679.6V418.88h4.15v2.69h.08Q685.63,418.35,690,418.34Zm-6.14,10.5a7.91,7.91,0,0,0,1.53,5.05,4.92,4.92,0,0,0,4,1.94,4.79,4.79,0,0,0,4-1.9,8.06,8.06,0,0,0,1.48-5.09,8.19,8.19,0,0,0-1.5-5,4.75,4.75,0,0,0-4-2,4.86,4.86,0,0,0-4.07,1.87A8.13,8.13,0,0,0,683.83,428.84Z"/></g></g></svg>