<svg xmlns="http://www.w3.org/2000/svg" viewBox="0 0 689.08 600"><defs><style>.cls-1{fill:#3382aa;}.cls-2{fill:#252a60;}</style></defs><g id="Layer_2" data-name="Layer 2"><g id="Layer_1-2" data-name="Layer 1"><path id="Path_1" data-name="Path 1" class="cls-1" d="M102.56,0V600L207.94,399.49H0Z"/><path id="Path_2" data-name="Path 2" class="cls-2" d="M314.7,399.34H224.91v-3.95h6.77c9.37,0,12.75-3.1,12.75-13.28v-89c0-10.67-3.09-15.1-15.88-15.1h-2.86v-4H285v4h-7.54c-13,0-16.4,1.32-16.4,13.79v92.68c0,5.46,2.31,7.53,8.07,7.53h29.67c12,0,15.36-4.69,28.11-22.12h3.71Z"/><path id="Path_3" data-name="Path 3" class="cls-2" d="M383.77,402.44c-39.31,0-72.6-25.24-72.6-63,0-40.08,30.71-68.19,73.36-68.19,38,0,70.54,25.78,70.54,61.91a68.73,68.73,0,0,1-68.17,69.28h0C385.85,402.49,384.81,402.48,383.77,402.44Zm-4.16-126c-35.41,0-49.43,33.06-49.43,57,0,37.48,25.48,64,57.78,64,32.79,0,48.41-28.89,48.41-57.52,0-37.21-23.71-63.51-56.74-63.51Z"/><path id="Path_4" data-name="Path 4" class="cls-2" d="M564.12,307.18a46.75,46.75,0,0,0-45.81-31c-33.58,0-54.41,24.21-54.41,58.05,0,36.44,26,63,56.74,63a53.12,53.12,0,0,0,48.94-29.69h3.95a153,153,0,0,1-12.75,29.4c-12.74-1.81-21.62,5.47-45.55,5.47-40.84,0-70-26.81-70-64,0-39.05,30.18-67.19,72.1-67.19,25.24,0,36.17,8.08,42.42,8.08,2.32,0,3.09-.52,3.65-1.32h3.08l1.83,29.15Z"/><path d="M221.32,436.32l10.57,27.44h-5.15l-2.57-7.26H213.22l-2.58,7.26h-5l10.53-27.44Zm-2.65,4.73-4.15,11.79h8.38l-4.11-11.79Z"/><path d="M241.84,443.35q4.47,0,6.15,3.23h.08v-2.69h4.15V471.1h-4.38v-9.92h-.08q-2.12,3.12-6.64,3.12a7.69,7.69,0,0,1-6.19-2.85,13.08,13.08,0,0,1,.13-15.23A8.58,8.58,0,0,1,241.84,443.35Zm-4.91,10.49a8.13,8.13,0,0,0,1.46,5.1,4.81,4.81,0,0,0,4,1.9,4.91,4.91,0,0,0,4.15-1.85,10.14,10.14,0,0,0,0-10.35,4.93,4.93,0,0,0-4.15-1.83,4.87,4.87,0,0,0-3.9,1.94A7.79,7.79,0,0,0,236.93,453.84Z"/><path d="M261,443.89v12.34q0,4.61,3.81,4.61,4.88,0,4.88-5.27V443.89h4.38v19.87h-4.31V461h-.07A6.63,6.63,0,0,1,264,464.3q-3.84,0-5.61-1.91t-1.77-5.7v-12.8Z"/><path d="M287,443.35a10,10,0,0,1,5.8,1.56,4.9,4.9,0,0,1,2.16,4.09v10.45a1.8,1.8,0,0,0,.23,1.08c.15.21.47.31,1,.31a4.14,4.14,0,0,0,.92-.08v3a11.87,11.87,0,0,1-2.77.5c-1.94,0-3.07-.81-3.38-2.42a7.69,7.69,0,0,1-3,1.76,11.64,11.64,0,0,1-3.86.66,7.26,7.26,0,0,1-5-1.62,5.32,5.32,0,0,1-1.84-4.19,5.43,5.43,0,0,1,1.58-4.2q1.58-1.49,5.91-2l1.81-.24a15.06,15.06,0,0,0,2.82-.49,2.16,2.16,0,0,0,1.14-.79,2.3,2.3,0,0,0,.34-1.29c0-1.77-1.37-2.66-4.11-2.69s-4.15,1.08-4.38,3.15h-4.38a6.31,6.31,0,0,1,2.54-4.94A10.92,10.92,0,0,1,287,443.35Zm-5.38,14.76a2.33,2.33,0,0,0,1,2,4.69,4.69,0,0,0,2.73.73,6.32,6.32,0,0,0,3.73-1,3.1,3.1,0,0,0,1.46-2.61V453.8a6.48,6.48,0,0,1-3,.89l-1.89.23Q281.58,455.39,281.58,458.11Z"/><path d="M303.75,436.32v27.44h-4.38V436.32Z"/><path d="M312.63,436.32v4.15h-4.38v-4.15Zm0,7.57v19.87h-4.38V443.89Z"/><path d="M324.66,443.35a9.81,9.81,0,0,1,5.78,1.56,6,6,0,0,1,2.52,4.55h-4.57c-.34-1.77-1.68-2.65-4-2.65a5.61,5.61,0,0,0-2.61.52,1.64,1.64,0,0,0-1,1.52,1.94,1.94,0,0,0,1.08,1.69,12.85,12.85,0,0,0,3.95,1.19,14.9,14.9,0,0,1,6,2.15,4.63,4.63,0,0,1,1.86,4,5.51,5.51,0,0,1-2.42,4.71,10.81,10.81,0,0,1-6.45,1.75,10.21,10.21,0,0,1-6.38-1.81,6.25,6.25,0,0,1-2.42-5.11h4.38c.25,2.3,1.75,3.46,4.49,3.46q4.43,0,4.42-2.5a2.28,2.28,0,0,0-1.52-2.06,19,19,0,0,0-4.9-1.32q-6.45-1.23-6.45-5.92a4.75,4.75,0,0,1,2.28-4.17A10.74,10.74,0,0,1,324.66,443.35Z"/><path d="M350.67,436.32a8.71,8.71,0,0,1,5.9,1.81,6.23,6.23,0,0,1,2.1,5,6,6,0,0,1-3.92,5.84V449a6.06,6.06,0,0,1,3.82,2.4,7.81,7.81,0,0,1,1.33,4.67,6.75,6.75,0,0,1-2.6,5.61q-2.58,2-7.32,2H337.19V436.32Zm-.76,11.49a4.19,4.19,0,0,0,2.8-1,3.54,3.54,0,0,0,1.15-2.86q0-3.74-3.88-3.73h-8v7.57Zm.69,12a4.58,4.58,0,0,0,3.28-1.14,4.15,4.15,0,0,0,1.22-3.2,3.92,3.92,0,0,0-1.25-3.17,4.85,4.85,0,0,0-3.25-1.06H342v8.57Z"/><path d="M373.23,443.35a6.33,6.33,0,0,1,1.65.12v4.22a11.59,11.59,0,0,0-1.88-.19,4.79,4.79,0,0,0-3.94,1.94,7.59,7.59,0,0,0-1.44,4.71v9.61h-4.38V443.89h4.11v3.84h.08a5.42,5.42,0,0,1,2.29-3.11A6.48,6.48,0,0,1,373.23,443.35Z"/><path d="M385.07,443.35a10,10,0,0,1,5.8,1.56A4.87,4.87,0,0,1,393,449v10.45a1.88,1.88,0,0,0,.23,1.08,1.16,1.16,0,0,0,1,.31,4.24,4.24,0,0,0,.93-.08v3a12,12,0,0,1-2.77.5c-1.95,0-3.08-.81-3.38-2.42a7.76,7.76,0,0,1-3,1.76,11.69,11.69,0,0,1-3.86.66,7.24,7.24,0,0,1-5-1.62,5.29,5.29,0,0,1-1.84-4.19,5.46,5.46,0,0,1,1.57-4.2c1.05-1,3-1.65,5.92-2l1.81-.24a15.22,15.22,0,0,0,2.82-.49,2.13,2.13,0,0,0,1.13-.79,2.22,2.22,0,0,0,.35-1.29c0-1.77-1.37-2.66-4.11-2.69s-4.15,1.08-4.38,3.15H376a6.33,6.33,0,0,1,2.53-4.94A11,11,0,0,1,385.07,443.35Zm-5.38,14.76a2.31,2.31,0,0,0,1,2,4.68,4.68,0,0,0,2.72.73,6.3,6.3,0,0,0,3.73-1,3.1,3.1,0,0,0,1.46-2.61V453.8a6.44,6.44,0,0,1-3,.89l-1.88.23Q379.69,455.39,379.69,458.11Z"/><path d="M406,443.35a9.15,9.15,0,0,1,4.92,1.37,9.44,9.44,0,0,1,3.29,3.57,11.06,11.06,0,0,1,1.25,5.17c0,.38,0,.88-.08,1.5h-14.6a6,6,0,0,0,1.48,4.24,5,5,0,0,0,3.86,1.64,5.12,5.12,0,0,0,3.13-.87,4.89,4.89,0,0,0,1.71-2.44h4.15a7.84,7.84,0,0,1-3.11,4.92,9.85,9.85,0,0,1-5.88,1.85,9.2,9.2,0,0,1-7.05-2.81,10.76,10.76,0,0,1-2.67-7.61,11.36,11.36,0,0,1,1.36-5.61,9.32,9.32,0,0,1,3.46-3.67A9.66,9.66,0,0,1,406,443.35Zm5,8.72a6,6,0,0,0-1.58-3.76,4.71,4.71,0,0,0-3.45-1.5,4.82,4.82,0,0,0-3.6,1.44,6,6,0,0,0-1.59,3.82Z"/><path d="M428.73,443.35a6.71,6.71,0,0,1,3.43.85,4.83,4.83,0,0,1,2.14,2.46,7.24,7.24,0,0,1,6.26-3.31q6.62,0,6.61,6.54v13.87h-4.38v-12c0-2-.29-3.33-.87-4a3.48,3.48,0,0,0-2.74-1q-4.23,0-4.23,5.15v11.8h-4.38V450.85a5.2,5.2,0,0,0-.73-2.94,3.06,3.06,0,0,0-2.73-1.1,4,4,0,0,0-3.13,1.44,5.31,5.31,0,0,0-1.25,3.6v11.91h-4.38V443.89h4.15v2.77h.12a7.54,7.54,0,0,1,2.59-2.52A7.18,7.18,0,0,1,428.73,443.35Z"/><path d="M460.08,443.35a10,10,0,0,1,5.8,1.56A4.9,4.9,0,0,1,468,449v10.45a1.8,1.8,0,0,0,.23,1.08c.15.21.47.31,1,.31a4.14,4.14,0,0,0,.92-.08v3a11.87,11.87,0,0,1-2.77.5c-1.94,0-3.07-.81-3.38-2.42a7.69,7.69,0,0,1-3,1.76,11.64,11.64,0,0,1-3.86.66,7.28,7.28,0,0,1-5-1.62,5.32,5.32,0,0,1-1.84-4.19,5.47,5.47,0,0,1,1.58-4.2q1.58-1.49,5.91-2l1.81-.24a15.38,15.38,0,0,0,2.83-.49,2.17,2.17,0,0,0,1.13-.79,2.3,2.3,0,0,0,.34-1.29c0-1.77-1.36-2.66-4.11-2.69s-4.15,1.08-4.38,3.15h-4.38a6.31,6.31,0,0,1,2.54-4.94A10.94,10.94,0,0,1,460.08,443.35Zm-5.38,14.76a2.33,2.33,0,0,0,1,2,4.69,4.69,0,0,0,2.73.73,6.32,6.32,0,0,0,3.73-1,3.1,3.1,0,0,0,1.46-2.61V453.8a6.48,6.48,0,0,1-3,.89l-1.89.23Q454.7,455.39,454.7,458.11Z"/><path d="M482.37,443.35a6.33,6.33,0,0,1,1.65.12v4.22a11.59,11.59,0,0,0-1.88-.19,4.77,4.77,0,0,0-3.94,1.94,7.59,7.59,0,0,0-1.44,4.71v9.61h-4.38V443.89h4.11v3.84h.08a5.4,5.4,0,0,1,2.28-3.11A6.54,6.54,0,0,1,482.37,443.35Z"/><path d="M501.24,436.32v23.29h14v4.15H496.43V436.32Z"/><path d="M529.79,435.67a12.18,12.18,0,0,1,9.47,4.05,16.34,16.34,0,0,1,0,20.64,13.12,13.12,0,0,1-19,0,16.36,16.36,0,0,1,0-20.6A12.13,12.13,0,0,1,529.79,435.67ZM521.45,450a12,12,0,0,0,2.23,7.55,7.26,7.26,0,0,0,6.11,2.9,7.33,7.33,0,0,0,6.09-2.86,13.88,13.88,0,0,0,0-15.18,7.38,7.38,0,0,0-6.11-2.86,7.26,7.26,0,0,0-6.07,2.88A12,12,0,0,0,521.45,450Z"/><path d="M558.61,435.67a12.32,12.32,0,0,1,8,2.57,9.67,9.67,0,0,1,3.6,6.8h-4.81q-1.43-5.44-6.84-5.45a7.32,7.32,0,0,0-6.11,2.88,12.06,12.06,0,0,0-2.23,7.57,11.71,11.71,0,0,0,2.31,7.63,7.42,7.42,0,0,0,6,2.82,6.32,6.32,0,0,0,4.79-1.92,8.92,8.92,0,0,0,2.21-5.26h4.68a12.18,12.18,0,0,1-3.49,8,11.16,11.16,0,0,1-8.19,3.07,12.28,12.28,0,0,1-9.43-4A14.68,14.68,0,0,1,545.47,450a14.84,14.84,0,0,1,3.65-10.34A12.2,12.2,0,0,1,558.61,435.67Z"/><path d="M596.46,435.67a12.66,12.66,0,0,1,8,2.47,10,10,0,0,1,3.74,6.9h-4.68a5.72,5.72,0,0,0-2.37-4,7.71,7.71,0,0,0-4.71-1.48,7.35,7.35,0,0,0-6.07,2.88,13.91,13.91,0,0,0,0,15.2,7.57,7.57,0,0,0,6.23,2.82,7.32,7.32,0,0,0,5.53-2,7.9,7.9,0,0,0,2-5.53h-7.3v-3.65h11.68v14.45h-3.07l-.73-3.23a11.9,11.9,0,0,1-3.67,3,10.54,10.54,0,0,1-4.6.92,12.21,12.21,0,0,1-9.47-4.05,16.32,16.32,0,0,1,0-20.62A12.16,12.16,0,0,1,596.46,435.67Z"/><path d="M622.75,443.35a6.33,6.33,0,0,1,1.65.12v4.22a11.7,11.7,0,0,0-1.88-.19,4.77,4.77,0,0,0-3.94,1.94,7.59,7.59,0,0,0-1.44,4.71v9.61h-4.38V443.89h4.11v3.84H617a5.4,5.4,0,0,1,2.28-3.11A6.51,6.51,0,0,1,622.75,443.35Z"/><path d="M634.32,443.35a9.66,9.66,0,0,1,7.24,2.87,10.37,10.37,0,0,1,2.79,7.58,10.5,10.5,0,0,1-2.77,7.65,10.7,10.7,0,0,1-14.56,0,11.93,11.93,0,0,1,0-15.2A9.6,9.6,0,0,1,634.32,443.35Zm-5.65,10.45a8,8,0,0,0,1.55,5,5.21,5.21,0,0,0,8.21,0,8,8,0,0,0,1.54-5,7.9,7.9,0,0,0-1.54-5.07,5,5,0,0,0-4.15-1.92,4.93,4.93,0,0,0-4.08,2A8,8,0,0,0,628.67,453.8Z"/><path d="M652,443.89v12.34q0,4.61,3.81,4.61,4.88,0,4.88-5.27V443.89h4.38v19.87h-4.31V461h-.07A6.63,6.63,0,0,1,655,464.3q-3.84,0-5.61-1.91t-1.77-5.7v-12.8Z"/><path d="M679.78,443.35a8.51,8.51,0,0,1,6.82,2.9,11.42,11.42,0,0,1,2.48,7.67,11.54,11.54,0,0,1-2.33,7.49,7.59,7.59,0,0,1-6.24,2.89,9.5,9.5,0,0,1-4-.81,5.74,5.74,0,0,1-2.65-2.31h-.08v9.92H669.4V443.89h4.15v2.69h.08Q675.43,443.36,679.78,443.35Zm-6.15,10.49a7.89,7.89,0,0,0,1.54,5.06,4.9,4.9,0,0,0,4,1.94,4.85,4.85,0,0,0,4-1.9,9.28,9.28,0,0,0,0-10.09,4.76,4.76,0,0,0-4-2,4.88,4.88,0,0,0-4.07,1.86A8.17,8.17,0,0,0,673.63,453.84Z"/></g></g></svg>