<svg xmlns="http://www.w3.org/2000/svg" viewBox="0 0 492.94 121.41"><defs><style>.cls-1{fill:#17243e;}.cls-2{fill:#00a3ad;}</style></defs><g id="Layer_2" data-name="Layer 2"><g id="Layer_1-2" data-name="Layer 1"><path class="cls-1" d="M202.71,29.3H181.15l-3.82,7.55h-8.72L187.52,1.17h8.92l18.91,35.68h-8.82Zm-3.42-6.62L191.9,8.15l-7.39,14.53Z"/><path class="cls-1" d="M251.84,33.48l4.58,5L252,42.25l-5.5-6A30.61,30.61,0,0,1,235.94,38c-13.92,0-22.68-7-22.68-19s8.76-19,22.68-19,22.68,7,22.68,19C258.62,25.28,256.17,30.22,251.84,33.48ZM241,30.37l-4.74-5.09,4.44-3.88,5.86,6.32A10.7,10.7,0,0,0,250.31,19c0-7.65-5.56-11.93-14.37-11.93S221.56,11.36,221.56,19s5.51,11.93,14.38,11.93A22,22,0,0,0,241,30.37Z"/><path class="cls-1" d="M302.85,1.17V20c0,10.7-7.09,17.94-20,17.94s-20-7.24-20-17.94V1.17h8.15V19.42c0,7.13,4.18,11.41,11.88,11.41s11.87-4.28,11.87-11.41V1.17Z"/><path class="cls-1" d="M336.53,29.3H315l-3.83,7.55h-8.71L321.35,1.17h8.92l18.9,35.68h-8.81Zm-3.41-6.62L325.73,8.15l-7.39,14.53Z"/><path class="cls-1" d="M386.88,29.81v7H353.5V1.17h8.16V29.81Z"/><path class="cls-1" d="M392.08,36.85V1.17h8.15V36.85Z"/><path class="cls-1" d="M446.41,26c0,7-6.68,11.93-19.32,11.93-9,0-16.36-2.55-21.81-7.19L410,25.23c4.38,4,10,5.91,17.32,5.91s10.91-1.38,10.91-4.33-3.67-3.78-11.87-4.49c-10.2-.86-19.68-3.11-19.68-10.75,0-7.44,8-11.52,19-11.52,7.8,0,14.53,1.94,19.06,5.45l-4.48,5.66c-3.92-3-8.77-4.23-14.58-4.28-4.84,0-10.75.81-10.75,4.08,0,3,5.1,3.36,12.18,3.92C438.41,15.8,446.41,18.19,446.41,26Z"/><path class="cls-2" d="M206.77,75.9c0,6.52-5.15,9.78-13.41,9.78H168.59V50h23.75c7.24,0,12.39,3.05,12.39,9.07,0,4.08-2.4,7.85-7.65,8.26C202.64,67.69,206.77,69.93,206.77,75.9Zm-34-10.4h18.91c5.1,0,8.72-1.32,8.72-5.81s-3.62-5.81-8.72-5.81H172.82Zm29.51,10.09c0-4.43-3.62-6.22-9.73-6.22H172.82V81.81H192.6C198.71,81.81,202.33,80,202.33,75.59Z"/><path class="cls-2" d="M249.22,85.69,237.4,72h-17V85.69h-4.33V50h24c7.95,0,13.65,4,13.65,11,0,6.22-4.48,10.09-11,10.85l12.18,13.82Zm-9.48-17.64c5.76,0,9.58-2.19,9.58-7s-3.82-7-9.58-7H220.37V68.05Z"/><path class="cls-2" d="M294.68,76.1H270.62l-5.19,9.59h-4.74L280.31,50h4.79l19.62,35.68h-4.84Zm-2.09-3.87-9.94-18.3-9.94,18.3Z"/><path class="cls-2" d="M344.47,81.71v4H310V50h34v4H314.24V65.55h25.18v4H314.24V81.71Z"/><path class="cls-2" d="M397.06,50V85.69h-4.28V56L374.63,78h-.3L356.18,56V85.69H352V50h4.69l17.89,21.81L392.47,50Z"/><path class="cls-2" d="M437.73,76.1H413.68l-5.2,9.59h-4.74L423.36,50h4.79l19.62,35.68h-4.84Zm-2.09-3.87-9.94-18.3-9.94,18.3Z"/><path class="cls-2" d="M486.18,85.69,474.35,72h-17V85.69h-4.33V50h24c7.95,0,13.65,4,13.65,11,0,6.22-4.48,10.09-11.06,10.85l12.19,13.82ZM476.7,68.05c5.76,0,9.58-2.19,9.58-7s-3.82-7-9.58-7H457.33V68.05Z"/><path class="cls-1" d="M36.49,20.49,52.07,49H20.91ZM10,68.5,0,86.32H73L63,68.5ZM124,49.9a28.17,28.17,0,0,0-8.91-8.63,22.55,22.55,0,0,0,5.54-7.09,19.67,19.67,0,0,0,1.76-8.49,21.83,21.83,0,0,0-1.62-8.14,20.77,20.77,0,0,0-4.7-7.16,31.56,31.56,0,0,0-11.51-7.65A39,39,0,0,0,90,0H50.53L61.35,19.51H88.69A9.52,9.52,0,0,1,95,21.62a6.5,6.5,0,0,1,2.52,5.19,6.07,6.07,0,0,1-2.24,4.84,9.09,9.09,0,0,1-6,1.9H69.13l10,18.1H92.76a10,10,0,0,1,6.6,2.11A6.5,6.5,0,0,1,101.88,59a7.22,7.22,0,0,1-2.52,5.62A9.2,9.2,0,0,1,93,66.81H87.58L98.23,86a42.28,42.28,0,0,0,12.43-3,27.66,27.66,0,0,0,12-9.12,22.1,22.1,0,0,0,4.21-13.26A20.12,20.12,0,0,0,124,49.9Z"/><path class="cls-2" d="M171.8,108l4.38,6.09,4.36-6.09h3.36l-6.25,8.56V121h-3v-4.44L168.43,108Z"/><path class="cls-2" d="M203.72,118.26h-7.85L194.48,121h-3.17l6.88-13h3.25l6.88,13h-3.21Zm-1.24-2.41-2.69-5.29-2.69,5.29Z"/><path class="cls-2" d="M230.24,116.74l2.71,1.35a8.37,8.37,0,0,1-7.13,3.32c-4.88,0-8-2.58-8-6.9s3.17-6.9,8.18-6.9a8.25,8.25,0,0,1,7,3.3l-2.73,1.35a4.64,4.64,0,0,0-4.26-2.09c-3.08,0-5.13,1.48-5.13,4.34s2.05,4.34,5.13,4.34A4.72,4.72,0,0,0,230.24,116.74Z"/><path class="cls-2" d="M259.24,108v13h-3v-5.29h-8.85V121h-3V108h3v5.11h8.85V108Z"/><path class="cls-2" d="M284.87,110.58h-5.68V121h-3V110.58h-5.64V108h14.29Z"/><path class="cls-2" d="M323.84,117.07c0,2.56-2.43,4.34-7,4.34a11.93,11.93,0,0,1-7.94-2.61l1.71-2a8.83,8.83,0,0,0,6.31,2.16c2.63,0,4-.5,4-1.58s-1.34-1.37-4.32-1.63c-3.72-.32-7.17-1.14-7.17-3.92s2.9-4.19,6.91-4.19a11.39,11.39,0,0,1,6.94,2l-1.64,2.06a8.56,8.56,0,0,0-5.3-1.56c-1.77,0-3.92.3-3.92,1.49s1.86,1.22,4.44,1.43C320.92,113.34,323.84,114.21,323.84,117.07Z"/><path class="cls-2" d="M348.91,118.52V121H335.53V108h13.19v2.49H338.48v2.67H347v2.49h-8.55v2.86Z"/><path class="cls-2" d="M372.12,121l-3.73-4.42h-4.7V121h-2.95V108h9c3.17,0,5.57,1.47,5.57,4.29,0,2.21-1.47,3.58-3.62,4.08l4,4.63Zm-2.58-6.87c1.56,0,2.71-.37,2.71-1.82s-1.15-1.82-2.71-1.82h-5.86v3.64Z"/><path class="cls-2" d="M388.32,108l4.9,10,4.88-10h3.21l-6.55,13h-3.14l-6.55-13Z"/><path class="cls-2" d="M412.35,121V108h3v13Z"/><path class="cls-2" d="M439.72,116.74l2.71,1.35a8.36,8.36,0,0,1-7.13,3.32c-4.88,0-8.05-2.58-8.05-6.9s3.17-6.9,8.18-6.9a8.23,8.23,0,0,1,7,3.3l-2.72,1.35a4.67,4.67,0,0,0-4.27-2.09c-3.08,0-5.12,1.48-5.12,4.34s2,4.34,5.12,4.34A4.71,4.71,0,0,0,439.72,116.74Z"/><path class="cls-2" d="M467.31,118.52V121H453.93V108h13.2v2.49H456.88v2.67h8.56v2.49h-8.56v2.86Z"/><path class="cls-2" d="M492.94,117.07c0,2.56-2.43,4.34-7,4.34a11.94,11.94,0,0,1-8-2.61l1.71-2a8.86,8.86,0,0,0,6.31,2.16c2.64,0,4-.5,4-1.58s-1.33-1.37-4.32-1.63c-3.71-.32-7.16-1.14-7.16-3.92s2.89-4.19,6.9-4.19a11.37,11.37,0,0,1,6.94,2l-1.63,2.06a8.59,8.59,0,0,0-5.31-1.56c-1.76,0-3.92.3-3.92,1.49s1.86,1.22,4.44,1.43C490,113.34,492.94,114.21,492.94,117.07Z"/></g></g></svg>