<svg xmlns="http://www.w3.org/2000/svg" viewBox="0 0 843.45 600"><defs><style>.cls-1{fill:#d33127;}</style></defs><g id="Layer_2" data-name="Layer 2"><g id="Layer_1-2" data-name="Layer 1"><polygon class="cls-1" points="76.35 368.46 100.48 392.59 100.83 392.23 100.83 344.67 100.48 344.34 76.35 368.46"/><polygon class="cls-1" points="25.95 294.94 38.52 282.38 31 274.83 25.95 294.94"/><polygon class="cls-1" points="100.83 402.06 100.83 449.62 124.6 425.85 100.83 402.06"/><polygon class="cls-1" points="22.89 307.15 21.32 313.4 43.09 335.2 67.21 311.07 43.09 286.95 22.89 307.15"/><rect class="cls-1" x="54.74" y="322.7" width="34.12" height="34.12" transform="translate(-219.22 150.29) rotate(-45)"/><polygon class="cls-1" points="199.72 408.13 204.76 398.34 163.65 398.34 186.56 421.28 199.72 408.13"/><rect class="cls-1" x="140.83" y="408.76" width="34.12" height="34.12" transform="translate(-254.85 236.36) rotate(-45)"/><polygon class="cls-1" points="152.12 398.34 106.26 398.34 129.17 421.28 152.12 398.34"/><polygon class="cls-1" points="76.35 311.07 100.48 335.2 100.83 334.84 100.83 287.3 100.48 286.95 76.35 311.07"/><polygon class="cls-1" points="71.78 373.04 47.66 397.16 48.87 398.34 94.73 398.34 95.91 397.16 71.78 373.04"/><polygon class="cls-1" points="43.09 277.81 67.21 253.68 43.09 229.56 42.11 230.53 32.82 267.55 43.09 277.81"/><polygon class="cls-1" points="7.96 366.61 6.72 371.56 9.82 368.46 7.96 366.61"/><polygon class="cls-1" points="67.21 138.9 65.53 137.22 64.41 141.71 67.21 138.9"/><polygon class="cls-1" points="129.17 487.81 105.05 511.94 129.17 536.06 138.67 526.54 148.64 507.25 129.17 487.81"/><polygon class="cls-1" points="9.79 359.29 14.39 363.89 38.52 339.77 19.49 320.72 9.79 359.29"/><polygon class="cls-1" points="14.39 373.04 3.66 383.77 0 398.34 37.34 398.34 38.52 397.16 14.39 373.04"/><rect class="cls-1" x="26.05" y="351.4" width="34.12" height="34.12" transform="translate(-247.91 138.4) rotate(-45)"/><polygon class="cls-1" points="168.16 469.38 157.87 459.12 133.74 483.24 151.73 501.23 168.16 469.38"/><polygon class="cls-1" points="76.35 138.9 100.48 163.03 100.83 162.67 100.83 115.13 100.48 114.78 76.35 138.9"/><polygon class="cls-1" points="67.36 129.91 71.78 134.33 95.91 110.21 77.06 91.33 67.36 129.91"/><polygon class="cls-1" points="105.05 569.33 112.72 576.97 128.97 545.41 105.05 569.33"/><polygon class="cls-1" points="76.35 196.29 100.48 220.42 100.83 220.06 100.83 172.49 100.48 172.17 76.35 196.29"/><polygon class="cls-1" points="61.34 153.91 55.86 175.77 71.78 191.72 95.91 167.6 71.78 143.47 61.34 153.91"/><polygon class="cls-1" points="80.57 77.3 78.89 84.02 100.48 105.64 100.83 105.28 100.83 57.71 100.48 57.39 80.57 77.3"/><polygon class="cls-1" points="99.8 0.68 90.39 38.16 100.48 48.25 100.83 47.89 100.83 0.35 100.48 0 99.8 0.68"/><polygon class="cls-1" points="83.64 65.09 95.91 52.82 88.56 45.48 83.64 65.09"/><polygon class="cls-1" points="186.56 430.43 162.44 454.55 171.26 463.34 187.65 431.52 186.56 430.43"/><polygon class="cls-1" points="76.35 253.68 100.48 277.81 100.83 277.45 100.83 229.88 100.48 229.56 76.35 253.68"/><rect class="cls-1" x="112.13" y="437.48" width="34.12" height="34.12" transform="translate(-283.57 224.49) rotate(-45)"/><rect class="cls-1" x="54.74" y="265.28" width="34.12" height="34.12" transform="translate(-178.62 133.47) rotate(-45)"/><polygon class="cls-1" points="100.83 459.44 100.83 507.01 124.6 483.24 100.83 459.44"/><polygon class="cls-1" points="100.83 574.23 100.83 600 109.59 582.98 100.83 574.23"/><polygon class="cls-1" points="100.83 516.84 100.83 564.4 124.6 540.63 100.83 516.84"/><polygon class="cls-1" points="45.18 218.32 67.21 196.29 54.03 183.08 45.18 218.32"/><rect class="cls-1" x="54.74" y="207.92" width="34.12" height="34.12" transform="translate(-138.06 116.67) rotate(-45)"/><path d="M189.86,372.36H129.29v-2.95h4.48c6.23,0,8.53-2.36,8.53-10.29v-69c0-8.26-2.16-11.8-10.71-11.8h-1.83v-2.95h39.93v2.95h-5c-8.85,0-11.12,1.09-11.12,10.73V361c0,4.22,1.48,5.9,5.43,5.9h19.9c8,0,10.44-3.6,19-17.13h2.41Z"/><path d="M239.17,374.83c-26.54,0-48.92-19.61-48.92-48.72,0-31,20.64-53.08,49.6-53.08a47.37,47.37,0,0,1,47.61,47.12c0,.34,0,.67,0,1C287.45,352.75,265.42,374.83,239.17,374.83ZM236.23,277c-23.86,0-33.36,25.54-33.36,44.24,0,29.11,17.22,49.66,39,49.66s32.67-22.41,32.67-44.53c.12-29-15.89-49.37-38.25-49.37Z"/><path d="M369.67,373.45,299.45,289v66.8c0,11.21,2.19,13.57,13.69,13.57v2.95H281.7v-2.95h.56c8.41,0,11.09-3.28,11.09-10.44V282.26A17.92,17.92,0,0,0,282,278.37v-2.95h21.29l63.85,76.44V289.93c0-9.53-2.45-11.24-13.3-11.53v-2.95h31.73v2.95c-10.18,0-12.36,2-12.36,8.08v86.91Z"/><path d="M460.71,365a81.59,81.59,0,0,1-36.33,9.79c-29.67,0-43.5-26.3-43.5-49,0-23.36,14.24-52.64,47.19-52.64,14.51,0,24.12,5.31,26.95,5.31a4.37,4.37,0,0,0,3.13-1.09h1.91v25.21h-2.71C453.66,283.12,442.16,277,429.54,277c-23.83,0-36,22.74-36,47.81,0,31.94,19.53,46.09,35.1,46.09a40.76,40.76,0,0,0,20.64-5.9V345.4c0-8.85-2.68-11.79-10.82-11.79h-4.9v-2.95h36.6v2.95c-6.78.47-9.5,3.12-9.5,9.82Z"/><path d="M500.94,372.36H468v-2.95c8.4-.47,10.17-3,10.17-13.42V289.66c0-8.4-2.59-10.73-10.17-11.2v-2.95h32.94v2.95c-8.55,0-11.53,2.18-11.53,12.62v66c0,9.2,2.18,12.33,11.53,12.33Z"/><path d="M550.37,358c0,8.41,2.44,11.39,10.73,11.39h5.13v2.95H523.41v-2.95h5c8.26,0,10.71-3,10.71-11.39V281.11H515.54c-5.4,0-7.85,3.57-9.88,17.28h-2.45l2.18-25.24H508a2.3,2.3,0,0,0,1.5,1.89,7.93,7.93,0,0,0,2.69.47h65.2c1.89,0,3.92-.47,4.22-2.36h2.56l2.16,25.24h-2.36c-2-13.71-4.49-17.28-9.91-17.28H550.43Z"/><path d="M690.1,275.51v2.95c-9.09,0-12.33,4.36-12.33,14.33v42c0,19.32-10.71,40-40.11,40-25.89,0-39.19-16.95-39.19-39.22V290.14c0-10-2.42-11.54-11.65-11.8v-2.95h34.83v2.95h-1.21c-7.46,0-10.71,2.33-10.71,11.35v43.56c0,21,10.71,33.65,30.91,33.65,15.3,0,30.88-7.31,30.88-33.8V296.68c0-14.95-2-17.69-13.27-18.22v-2.95Z"/><path d="M698,291.08c0-10.15-2.3-12.62-10.29-12.62H685v-2.95c5-.33,11.65-.65,19.11-.95s15.72-.47,22.77-.47c35.77,0,51.64,20.88,51.64,46.57,0,23.59-15.87,51.7-50.14,51.7H685v-2.95h2.3c7.32,0,10.71-2.36,10.71-11.39Zm11.26,69.75c0,6.4.42,8.58,11.12,8.58,18.14,0,25.75-3,34.15-12.62a52,52,0,0,0,11.24-33.65c0-11.51-2.95-24.28-10.82-33.48C748.72,282.5,739.11,277,720.12,277a89.18,89.18,0,0,0-10.83.65Z"/><path d="M831.92,337.32h-2.6c-1.06-11.06-3.65-12.3-9.2-12.3H797.21v33.15c0,7.17,2.3,8.58,7.31,8.58H825.4c9.5,0,12.33-4.21,15.72-17.69h2.33l-2.18,23.21H769.43v-2.95h3.8c10.83,0,12.74-3.45,12.74-12.77V290.9c0-8.85-1.77-12.44-10.85-12.44h-3v-2.95h65.06l1.09,21.61h-2.45c-1.77-13.21-5.16-16-10-16h-28.6v38.34h24.27c4.87,0,7.17-2.65,7.84-11.8H832Z"/><path d="M229.31,410.43l10.57,27.43h-5.15l-2.58-7.26h-11l-2.57,7.26h-5l10.53-27.43Zm-2.65,4.72L222.51,427h8.38l-4.12-11.8Z"/><path d="M249.83,417.46c3,0,5,1.07,6.15,3.23h.08V418h4.15v27.2h-4.38v-9.91h-.08c-1.41,2.08-3.63,3.11-6.65,3.11a7.69,7.69,0,0,1-6.19-2.84,11.4,11.4,0,0,1-2.38-7.53,11.26,11.26,0,0,1,2.52-7.71A8.57,8.57,0,0,1,249.83,417.46ZM244.91,428a8.16,8.16,0,0,0,1.46,5.09,4.8,4.8,0,0,0,4,1.9,4.92,4.92,0,0,0,4.15-1.84,10.16,10.16,0,0,0,0-10.36,5,5,0,0,0-4.15-1.82,4.85,4.85,0,0,0-3.9,1.94A7.72,7.72,0,0,0,244.91,428Z"/><path d="M269,418v12.33c0,3.08,1.27,4.61,3.8,4.61q4.88,0,4.88-5.26V418H282v19.86h-4.3V435.1h-.08a6.59,6.59,0,0,1-5.69,3.3q-3.84,0-5.6-1.9c-1.19-1.27-1.77-3.17-1.77-5.71V418Z"/><path d="M295,417.46a10,10,0,0,1,5.8,1.55,4.88,4.88,0,0,1,2.15,4.1v10.45a1.92,1.92,0,0,0,.23,1.08,1.2,1.2,0,0,0,1,.3,4.21,4.21,0,0,0,.92-.07v3a11.3,11.3,0,0,1-2.76.5c-1.95,0-3.08-.81-3.38-2.42a7.77,7.77,0,0,1-3,1.77,11.68,11.68,0,0,1-3.86.65,7.29,7.29,0,0,1-5-1.61,5.3,5.3,0,0,1-1.84-4.19,5.5,5.5,0,0,1,1.57-4.21q1.58-1.47,5.92-2l1.81-.23a15.17,15.17,0,0,0,2.82-.5,2.07,2.07,0,0,0,1.13-.78,2.3,2.3,0,0,0,.35-1.29q0-2.66-4.11-2.69t-4.38,3.15h-4.38a6.28,6.28,0,0,1,2.53-4.94A11,11,0,0,1,295,417.46Zm-5.38,14.76a2.3,2.3,0,0,0,1,2,4.64,4.64,0,0,0,2.73.73,6.3,6.3,0,0,0,3.73-1,3.13,3.13,0,0,0,1.46-2.62v-3.38a6.56,6.56,0,0,1-3,.89l-1.88.23C290.94,429.33,289.57,430.4,289.57,432.22Z"/><path d="M311.74,410.43v27.43h-4.38V410.43Z"/><path d="M320.61,410.43v4.15h-4.38v-4.15Zm0,7.57v19.86h-4.38V418Z"/><path d="M332.64,417.46a9.91,9.91,0,0,1,5.79,1.55,6,6,0,0,1,2.51,4.56h-4.57c-.33-1.77-1.68-2.65-4-2.65a5.65,5.65,0,0,0-2.62.52,1.63,1.63,0,0,0-1,1.52,1.9,1.9,0,0,0,1.07,1.68,13,13,0,0,0,4,1.2,15,15,0,0,1,6,2.15,4.63,4.63,0,0,1,1.86,4,5.51,5.51,0,0,1-2.42,4.7,10.79,10.79,0,0,1-6.46,1.75,10.22,10.22,0,0,1-6.38-1.8,6.29,6.29,0,0,1-2.42-5.11h4.38q.39,3.45,4.5,3.45c2.94,0,4.42-.83,4.42-2.49a2.3,2.3,0,0,0-1.52-2.06,19.09,19.09,0,0,0-4.9-1.32q-6.45-1.23-6.46-5.92a4.76,4.76,0,0,1,2.29-4.17A10.71,10.71,0,0,1,332.64,417.46Z"/><path d="M358.66,410.43a8.78,8.78,0,0,1,5.9,1.8,6.24,6.24,0,0,1,2.09,5,6,6,0,0,1-3.92,5.84v.08a6,6,0,0,1,3.83,2.4,7.88,7.88,0,0,1,1.32,4.67,6.74,6.74,0,0,1-2.59,5.61c-1.73,1.36-4.17,2-7.32,2h-12.8V410.43Zm-.77,11.49a4.22,4.22,0,0,0,2.81-1,3.56,3.56,0,0,0,1.15-2.87q0-3.72-3.88-3.72h-8v7.57Zm.69,12a4.6,4.6,0,0,0,3.29-1.14,4.16,4.16,0,0,0,1.21-3.21,3.93,3.93,0,0,0-1.25-3.17,4.86,4.86,0,0,0-3.25-1.05H350V434Z"/><path d="M381.22,417.46a7.21,7.21,0,0,1,1.65.11v4.23a10.75,10.75,0,0,0-1.88-.19,4.77,4.77,0,0,0-3.94,1.94,7.59,7.59,0,0,0-1.44,4.71v9.6h-4.38V418h4.11v3.84h.08a5.37,5.37,0,0,1,2.28-3.11A6.48,6.48,0,0,1,381.22,417.46Z"/><path d="M393.05,417.46a10,10,0,0,1,5.81,1.55,4.91,4.91,0,0,1,2.15,4.1v10.45a1.84,1.84,0,0,0,.23,1.08,1.17,1.17,0,0,0,1,.3,4.21,4.21,0,0,0,.92-.07v3a11.36,11.36,0,0,1-2.77.5c-1.94,0-3.07-.81-3.38-2.42a7.65,7.65,0,0,1-3,1.77,11.73,11.73,0,0,1-3.87.65,7.28,7.28,0,0,1-4.95-1.61,5.31,5.31,0,0,1-1.85-4.19,5.5,5.5,0,0,1,1.58-4.21q1.58-1.47,5.91-2l1.81-.23a15.15,15.15,0,0,0,2.83-.5,2.11,2.11,0,0,0,1.13-.78,2.3,2.3,0,0,0,.35-1.29q0-2.66-4.11-2.69t-4.39,3.15H384a6.29,6.29,0,0,1,2.54-4.94A10.94,10.94,0,0,1,393.05,417.46Zm-5.38,14.76a2.31,2.31,0,0,0,1,2,4.62,4.62,0,0,0,2.73.73,6.32,6.32,0,0,0,3.73-1,3.13,3.13,0,0,0,1.46-2.62v-3.38a6.6,6.6,0,0,1-3,.89l-1.89.23C389,429.33,387.67,430.4,387.67,432.22Z"/><path d="M414,417.46a9.28,9.28,0,0,1,4.92,1.36,9.51,9.51,0,0,1,3.28,3.58,11,11,0,0,1,1.25,5.17c0,.38,0,.88-.07,1.5H408.77a6.05,6.05,0,0,0,1.48,4.24,5,5,0,0,0,3.86,1.63,5.15,5.15,0,0,0,3.14-.86,4.93,4.93,0,0,0,1.71-2.44h4.15a8,8,0,0,1-3.12,4.92,9.84,9.84,0,0,1-5.88,1.84,9.22,9.22,0,0,1-7.05-2.8,10.85,10.85,0,0,1-2.67-7.61,11.37,11.37,0,0,1,1.37-5.61,9.23,9.23,0,0,1,3.45-3.67A9.7,9.7,0,0,1,414,417.46Zm5,8.72a6,6,0,0,0-1.58-3.76,4.66,4.66,0,0,0-3.46-1.5,4.78,4.78,0,0,0-3.59,1.44,6,6,0,0,0-1.6,3.82Z"/><path d="M436.71,417.46a6.85,6.85,0,0,1,3.44.84,4.89,4.89,0,0,1,2.13,2.46,7.27,7.27,0,0,1,6.27-3.3q6.6,0,6.61,6.53v13.87h-4.39v-12c0-2-.28-3.33-.86-4a3.47,3.47,0,0,0-2.75-1c-2.82,0-4.22,1.71-4.22,5.15v11.79h-4.38V425a5.2,5.2,0,0,0-.74-2.94,3,3,0,0,0-2.72-1.09,4,4,0,0,0-3.13,1.44,5.25,5.25,0,0,0-1.25,3.59v11.91h-4.39V418h4.16v2.76h.11a7.5,7.5,0,0,1,2.59-2.51A7.21,7.21,0,0,1,436.71,417.46Z"/><path d="M468.07,417.46a10,10,0,0,1,5.8,1.55,4.88,4.88,0,0,1,2.15,4.1v10.45a1.92,1.92,0,0,0,.23,1.08,1.2,1.2,0,0,0,1,.3,4.37,4.37,0,0,0,.93-.07v3a11.44,11.44,0,0,1-2.77.5c-1.95,0-3.08-.81-3.38-2.42a7.77,7.77,0,0,1-3,1.77,11.68,11.68,0,0,1-3.86.65,7.29,7.29,0,0,1-5-1.61,5.3,5.3,0,0,1-1.84-4.19,5.5,5.5,0,0,1,1.57-4.21c1.05-1,3-1.64,5.92-2l1.81-.23a15.17,15.17,0,0,0,2.82-.5,2.07,2.07,0,0,0,1.13-.78,2.22,2.22,0,0,0,.35-1.29q0-2.66-4.11-2.69t-4.38,3.15H459a6.31,6.31,0,0,1,2.53-4.94A11,11,0,0,1,468.07,417.46Zm-5.38,14.76a2.3,2.3,0,0,0,1,2,4.66,4.66,0,0,0,2.73.73,6.3,6.3,0,0,0,3.73-1,3.13,3.13,0,0,0,1.46-2.62v-3.38a6.56,6.56,0,0,1-3,.89l-1.88.23C464.06,429.33,462.69,430.4,462.69,432.22Z"/><path d="M490.36,417.46a7.21,7.21,0,0,1,1.65.11v4.23a10.76,10.76,0,0,0-1.89-.19,4.77,4.77,0,0,0-3.93,1.94,7.59,7.59,0,0,0-1.44,4.71v9.6h-4.39V418h4.12v3.84h.07a5.43,5.43,0,0,1,2.29-3.11A6.48,6.48,0,0,1,490.36,417.46Z"/><path d="M509.22,410.43v23.28h13.95v4.15H504.42V410.43Z"/><path d="M537.78,409.77a12.22,12.22,0,0,1,9.47,4.06,16.33,16.33,0,0,1,0,20.63,13.12,13.12,0,0,1-19,0,16.36,16.36,0,0,1,0-20.6A12.17,12.17,0,0,1,537.78,409.77Zm-8.34,14.38a12.06,12.06,0,0,0,2.23,7.55,7.28,7.28,0,0,0,6.11,2.9,7.36,7.36,0,0,0,6.09-2.86,13.93,13.93,0,0,0,0-15.18,7.39,7.39,0,0,0-6.11-2.87,7.24,7.24,0,0,0-6.07,2.88A12,12,0,0,0,529.44,424.15Z"/><path d="M566.6,409.77a12.34,12.34,0,0,1,8,2.58,9.64,9.64,0,0,1,3.59,6.8h-4.8q-1.43-5.46-6.84-5.46a7.29,7.29,0,0,0-6.11,2.88,12,12,0,0,0-2.23,7.58,11.72,11.72,0,0,0,2.3,7.62,7.41,7.41,0,0,0,6,2.83,6.3,6.3,0,0,0,4.78-1.92,8.83,8.83,0,0,0,2.21-5.27h4.69a12.17,12.17,0,0,1-3.5,8,11.13,11.13,0,0,1-8.18,3.08,12.29,12.29,0,0,1-9.44-4,16.4,16.4,0,0,1,0-20.69A12.19,12.19,0,0,1,566.6,409.77Z"/><path d="M604.45,409.77a12.61,12.61,0,0,1,8,2.48,10,10,0,0,1,3.75,6.9h-4.69a5.75,5.75,0,0,0-2.36-4,7.81,7.81,0,0,0-4.71-1.48,7.32,7.32,0,0,0-6.07,2.88,13.86,13.86,0,0,0,0,15.2,7.52,7.52,0,0,0,6.22,2.83,7.34,7.34,0,0,0,5.54-2,7.91,7.91,0,0,0,2-5.53h-7.31v-3.65h11.69v14.44h-3.08l-.73-3.22a11.6,11.6,0,0,1-3.67,2.95,10.38,10.38,0,0,1-4.59.93,12.16,12.16,0,0,1-9.47-4.06,16.3,16.3,0,0,1,0-20.61A12.14,12.14,0,0,1,604.45,409.77Z"/><path d="M630.74,417.46a7.21,7.21,0,0,1,1.65.11v4.23a10.76,10.76,0,0,0-1.89-.19,4.8,4.8,0,0,0-3.94,1.94,7.59,7.59,0,0,0-1.44,4.71v9.6h-4.38V418h4.11v3.84h.08a5.39,5.39,0,0,1,2.29-3.11A6.48,6.48,0,0,1,630.74,417.46Z"/><path d="M642.3,417.46a9.63,9.63,0,0,1,7.24,2.86,11.83,11.83,0,0,1,0,15.24,10.72,10.72,0,0,1-14.56,0,11.91,11.91,0,0,1,0-15.2A9.59,9.59,0,0,1,642.3,417.46Zm-5.65,10.45a8,8,0,0,0,1.56,5,5.22,5.22,0,0,0,8.2,0,8,8,0,0,0,1.54-5,7.84,7.84,0,0,0-1.54-5.07,5,5,0,0,0-4.15-1.92,4.9,4.9,0,0,0-4.07,2A7.86,7.86,0,0,0,636.65,427.91Z"/><path d="M660,418v12.33c0,3.08,1.27,4.61,3.8,4.61,3.26,0,4.88-1.75,4.88-5.26V418h4.39v19.86h-4.31V435.1h-.08a6.59,6.59,0,0,1-5.68,3.3q-3.86,0-5.61-1.9t-1.77-5.71V418Z"/><path d="M687.76,417.46a8.5,8.5,0,0,1,6.82,2.9,11.37,11.37,0,0,1,2.48,7.67,11.56,11.56,0,0,1-2.32,7.49,7.61,7.61,0,0,1-6.25,2.88,9.48,9.48,0,0,1-4-.81,5.69,5.69,0,0,1-2.66-2.3h-.07v9.91h-4.38V418h4.15v2.69h.08C682.82,418.53,684.87,417.46,687.76,417.46ZM681.62,428a7.9,7.9,0,0,0,1.53,5.05,4.89,4.89,0,0,0,4,1.94,4.79,4.79,0,0,0,4-1.9,8,8,0,0,0,1.48-5.09,8.16,8.16,0,0,0-1.5-5,4.75,4.75,0,0,0-4-2,4.88,4.88,0,0,0-4.07,1.86A8.15,8.15,0,0,0,681.62,428Z"/></g></g></svg>