<svg xmlns="http://www.w3.org/2000/svg" viewBox="0 0 700.57 258.43"><defs><style>.cls-1{fill:#28235d;}</style></defs><g id="Layer_2" data-name="Layer 2"><g id="Layer_1-2" data-name="Layer 1"><path class="cls-1" d="M0,85C0,30.55,42.4,0,106.24,0,170.3,0,212.7,30.55,212.7,85s-42.4,85-106.46,85C42.4,170.07,0,139.52,0,85Zm156.17,0c0-26.22-18.93-41.5-49.93-41.5-30.78,0-49.93,15.28-49.93,41.5s18.92,41.49,49.93,41.49S156.17,111.25,156.17,85ZM504.74,5.24,446.61,164.83H392.12L359.52,62.47,326.69,164.83H272.2L214.07,5.24h55.85l31,102.14,34-102.14h49.92l34,102.14,31-102.14Zm150,98.26,45.83,24.17c-14.36,24.16-47.88,42.4-92.11,42.4-60.41,0-102.36-30.55-102.36-85S548.05,0,610.52,0C652.69,0,686,18.47,699.89,42.18L653.83,66.11c-9.8-15.27-24.85-22.57-44-22.57-28.27,0-47.42,15.05-47.42,41.5s19.15,41.49,47.42,41.49C629,126.53,644.26,119.69,654.74,103.5Z"/><path class="cls-1" d="M33.5,248.77l-4.35-9.94H12.41l-4.36,9.94H2.6l15.45-34.14h5.79l15.44,34.14ZM20.73,219.32l-6.41,15.11h13Z"/><path class="cls-1" d="M64.15,258.43V245.28h-.09a8.5,8.5,0,0,1-3.93,3.23,13.82,13.82,0,0,1-5.59,1.12,15.16,15.16,0,0,1-6.89-1.55,11.68,11.68,0,0,1-4.92-4.61,13.52,13.52,0,0,1-1.82-7.08,13.37,13.37,0,0,1,1.82-7.08,12,12,0,0,1,4.92-4.59,15.05,15.05,0,0,1,6.89-1.58,14.07,14.07,0,0,1,5.59,1.13,8.89,8.89,0,0,1,3.93,2.94h.09v-3.49h4.78v34.71ZM46,236.39a9.29,9.29,0,0,0,2.51,6.79,9.08,9.08,0,0,0,6.67,2.44,8.65,8.65,0,0,0,9.28-9.23A9.4,9.4,0,0,0,62,229.67a9,9,0,0,0-6.79-2.51,8.82,8.82,0,0,0-6.77,2.58A9.34,9.34,0,0,0,46,236.39Z"/><path class="cls-1" d="M95.19,248.77V245h-.1a9.8,9.8,0,0,1-4.28,3.58,14.14,14.14,0,0,1-5.52,1c-3.35,0-5.94-.75-7.77-2.27a8,8,0,0,1-2.75-6.57V223.72h4.78v16.11a5.25,5.25,0,0,0,1.82,4.31c1.21,1,3.07,1.48,5.59,1.48a8.85,8.85,0,0,0,5.84-2,6.91,6.91,0,0,0,2.39-5.5V223.72H100v25.05Z"/><path class="cls-1" d="M133.54,248.77c-.57.1-1.2.17-1.86.22s-1.3.07-1.87.07a5,5,0,0,1-3.06-.76,3.82,3.82,0,0,1-1.24-2.73,9.65,9.65,0,0,1-4.31,2.92,17.56,17.56,0,0,1-6.36,1.14q-5.07,0-7.63-2a6.71,6.71,0,0,1-2.55-5.5,6.12,6.12,0,0,1,2.55-5.43c1.71-1.16,4.44-2,8.21-2.37l5.45-.57a8.12,8.12,0,0,0,3.2-.76,2.33,2.33,0,0,0,1.15-2.25,3.31,3.31,0,0,0-1.75-3.13,11.52,11.52,0,0,0-5.47-1,10.57,10.57,0,0,0-5.69,1.27,4.35,4.35,0,0,0-2.06,3.71h-4.49q.46-4.59,3.56-6.65t8.87-2.06c3.67,0,6.5.6,8.51,1.8a5.82,5.82,0,0,1,3,5.33v13.49a1.9,1.9,0,0,0,2.15,2.15c.25,0,.53,0,.83-.05a6.39,6.39,0,0,0,.84-.14Zm-8.32-13.1a3.57,3.57,0,0,1-1.58.91,18.13,18.13,0,0,1-3.11.57l-5.4.67a10.8,10.8,0,0,0-4.31,1.29,3.15,3.15,0,0,0-1.38,2.83,3.37,3.37,0,0,0,1.57,2.84,7.22,7.22,0,0,0,4.26,1.13,12.44,12.44,0,0,0,7.13-2,6,6,0,0,0,2.82-5Z"/><path class="cls-1" d="M136.79,248.77V214.34h4.78v34.43Z"/><path class="cls-1" d="M147.41,219.6v-5.26h4.78v5.26Zm0,29.17V223.72h4.78v25.05Z"/><path class="cls-1" d="M176.39,231.27a4.2,4.2,0,0,0-2.06-3.37,9.65,9.65,0,0,0-5.45-1.32,10,10,0,0,0-4.76,1,3.07,3.07,0,0,0-1.84,2.84,2.47,2.47,0,0,0,.88,2.08,7.33,7.33,0,0,0,3.28,1l6.79.91c3.16.48,5.4,1.26,6.75,2.34a5.29,5.29,0,0,1,2,4.3,7.17,7.17,0,0,1-3.3,6.39q-3.3,2.17-9.28,2.17a22.44,22.44,0,0,1-6.36-.81,9.48,9.48,0,0,1-4.47-2.77,8.51,8.51,0,0,1-2-5.17h4.78a4.25,4.25,0,0,0,2,3.61,10.24,10.24,0,0,0,5.86,1.42,12.3,12.3,0,0,0,5.72-1.06,3.18,3.18,0,0,0,1.93-2.87,2.54,2.54,0,0,0-1-2.22,9,9,0,0,0-3.68-1.12l-7.89-1.06a8.66,8.66,0,0,1-4.86-2.15,5.82,5.82,0,0,1-1.93-4.49,6.9,6.9,0,0,1,3-5.91q3-2.17,8.42-2.18c3.79,0,6.72.74,8.8,2.2a8.05,8.05,0,0,1,3.44,6.22Z"/><path class="cls-1" d="M187.15,248.77V214.63h19q5.26,0,7.89,2.2a8.91,8.91,0,0,1,1.39,10.88,7.49,7.49,0,0,1-3.73,2.7v.1a8.28,8.28,0,0,1,4.74,2.72,8.65,8.65,0,0,1,1.72,5.69,9.44,9.44,0,0,1-3,7.1,10.93,10.93,0,0,1-7.84,2.75ZM192.22,219v9.71H206a5.84,5.84,0,0,0,4.13-1.32,4.49,4.49,0,0,0,1.41-3.47,4.72,4.72,0,0,0-1.36-3.65c-.91-.85-2.4-1.27-4.47-1.27Zm0,14.11v11.23h13.72a8.42,8.42,0,0,0,5.26-1.43,5.14,5.14,0,0,0,1.87-4.35,4.85,4.85,0,0,0-1.77-4,7.71,7.71,0,0,0-4.93-1.41Z"/><path class="cls-1" d="M223.59,248.77V223.72h4.78v4.59h.1a11.05,11.05,0,0,1,3.87-4.16,9.2,9.2,0,0,1,4.73-1.3,10.06,10.06,0,0,1,2.73.29v5.17a11.94,11.94,0,0,0-3.4-.48,8,8,0,0,0-5.78,2.1,8.22,8.22,0,0,0-2.25,6.12v12.72Z"/><path class="cls-1" d="M270.79,248.77c-.58.1-1.2.17-1.86.22s-1.3.07-1.87.07a5,5,0,0,1-3.06-.76,3.82,3.82,0,0,1-1.24-2.73,9.65,9.65,0,0,1-4.31,2.92,17.6,17.6,0,0,1-6.36,1.14q-5.07,0-7.63-2a6.71,6.71,0,0,1-2.55-5.5,6.12,6.12,0,0,1,2.55-5.43q2.56-1.74,8.2-2.37l5.45-.57a8.17,8.17,0,0,0,3.21-.76,2.35,2.35,0,0,0,1.15-2.25,3.31,3.31,0,0,0-1.75-3.13,11.52,11.52,0,0,0-5.47-1,10.54,10.54,0,0,0-5.69,1.27,4.35,4.35,0,0,0-2.06,3.71H243q.48-4.59,3.57-6.65t8.87-2.06q5.49,0,8.51,1.8a5.81,5.81,0,0,1,3,5.33v13.49a1.91,1.91,0,0,0,2.16,2.15c.25,0,.53,0,.83-.05a6.39,6.39,0,0,0,.84-.14Zm-8.32-13.1a3.57,3.57,0,0,1-1.58.91,18.13,18.13,0,0,1-3.11.57l-5.4.67a10.8,10.8,0,0,0-4.31,1.29,3.16,3.16,0,0,0-1.39,2.83,3.38,3.38,0,0,0,1.58,2.84,7.22,7.22,0,0,0,4.26,1.13,12.44,12.44,0,0,0,7.13-2,6,6,0,0,0,2.82-5Z"/><path class="cls-1" d="M278,237.68a8,8,0,0,0,2.89,5.69,9.68,9.68,0,0,0,6.34,2.25,10.17,10.17,0,0,0,5-1.15,7,7,0,0,0,3.11-3.3h5.07a13.13,13.13,0,0,1-5.09,6.22,14,14,0,0,1-7.82,2.24q-6.89,0-10.71-3.8a13.88,13.88,0,0,1,0-19.17c2.57-2.51,6.13-3.77,10.69-3.81a14.93,14.93,0,0,1,6.79,1.56,11.73,11.73,0,0,1,5,4.73,15.57,15.57,0,0,1,1.84,7.92v.62ZM296,234a8,8,0,0,0-3-5.24,9.26,9.26,0,0,0-5.79-1.84,9.52,9.52,0,0,0-6,2,8.15,8.15,0,0,0-3.11,5.12Z"/><path class="cls-1" d="M344,248.77V232.85a6,6,0,0,0-1.56-4.45,6.1,6.1,0,0,0-4.47-1.53,9.48,9.48,0,0,0-5.91,1.77,5.91,5.91,0,0,0-2.32,5v15.16H325V232.85a6,6,0,0,0-1.55-4.45,6.12,6.12,0,0,0-4.47-1.53,8.69,8.69,0,0,0-5.88,2,6.79,6.79,0,0,0-2.35,5.45v14.44h-4.78V223.72h4.78v3.77h.1a9.8,9.8,0,0,1,4.25-3.56,14,14,0,0,1,5.55-1.08,10.66,10.66,0,0,1,4.76,1.1,9.44,9.44,0,0,1,3.75,3.54,12.15,12.15,0,0,1,4.16-3.39,13.23,13.23,0,0,1,6-1.25,12.89,12.89,0,0,1,2.32.27,10.78,10.78,0,0,1,2.92,1,7.62,7.62,0,0,1,2.53,2,6.85,6.85,0,0,1,1.39,2.72,11.76,11.76,0,0,1,.36,2.8v17.07Z"/><path class="cls-1" d="M382.36,248.77c-.58.1-1.2.17-1.86.22s-1.3.07-1.87.07a5,5,0,0,1-3.06-.76,3.86,3.86,0,0,1-1.24-2.73,9.65,9.65,0,0,1-4.31,2.92,17.56,17.56,0,0,1-6.36,1.14q-5.07,0-7.63-2a6.71,6.71,0,0,1-2.55-5.5,6.12,6.12,0,0,1,2.55-5.43q2.57-1.74,8.2-2.37l5.46-.57a8.16,8.16,0,0,0,3.2-.76A2.35,2.35,0,0,0,374,230.7a3.31,3.31,0,0,0-1.75-3.13,11.5,11.5,0,0,0-5.47-1,10.54,10.54,0,0,0-5.69,1.27,4.35,4.35,0,0,0-2.06,3.71h-4.5q.48-4.59,3.57-6.65t8.87-2.06q5.49,0,8.51,1.8a5.81,5.81,0,0,1,3,5.33v13.49a1.91,1.91,0,0,0,2.16,2.15c.25,0,.53,0,.83-.05a6.39,6.39,0,0,0,.84-.14ZM374,235.67a3.57,3.57,0,0,1-1.58.91,18.13,18.13,0,0,1-3.11.57l-5.4.67a10.69,10.69,0,0,0-4.3,1.29,3.14,3.14,0,0,0-1.39,2.83,3.36,3.36,0,0,0,1.58,2.84,7.19,7.19,0,0,0,4.25,1.13,12.44,12.44,0,0,0,7.13-2,6,6,0,0,0,2.82-5Z"/><path class="cls-1" d="M385.61,248.77V223.72h4.78v4.59h.1a11.05,11.05,0,0,1,3.87-4.16,9.23,9.23,0,0,1,4.73-1.3,10,10,0,0,1,2.73.29v5.17a11.87,11.87,0,0,0-3.39-.48,8,8,0,0,0-5.79,2.1,8.22,8.22,0,0,0-2.25,6.12v12.72Z"/><path class="cls-1" d="M422,248.77V214.63h5.07v29.74h20.76v4.4Z"/><path class="cls-1" d="M450.08,231.7a19.59,19.59,0,0,1,2.05-8.92,15.55,15.55,0,0,1,6.29-6.53,24.07,24.07,0,0,1,21.14-.07,15.31,15.31,0,0,1,6.4,6.53,20.38,20.38,0,0,1,0,18,15.36,15.36,0,0,1-6.35,6.53,24.25,24.25,0,0,1-21.12,0,15.33,15.33,0,0,1-6.36-6.56A19.71,19.71,0,0,1,450.08,231.7Zm5.06,0q.06,6.41,3.8,10t10.12,3.59q6.4-.06,10.14-3.61T483,231.7q0-6.31-3.76-9.9t-10.16-3.63q-6.4,0-10.14,3.63T455.14,231.7Z"/><path class="cls-1" d="M526.69,235.72a14.52,14.52,0,0,1-2.66,7,15.48,15.48,0,0,1-6,5.07,18.73,18.73,0,0,1-8.42,1.84,21,21,0,0,1-7.36-1.26,15.88,15.88,0,0,1-5.76-3.64,15.34,15.34,0,0,1-3.59-5.66,21.5,21.5,0,0,1-1.22-7.46,19.69,19.69,0,0,1,2.06-9.09,15.29,15.29,0,0,1,6.07-6.36,19.4,19.4,0,0,1,9.76-2.39,23,23,0,0,1,8,1.39,14.42,14.42,0,0,1,6.26,4.32,13.21,13.21,0,0,1,2.9,7.44h-5.07a9.71,9.71,0,0,0-3.68-6.36,12.64,12.64,0,0,0-8-2.39q-6.31,0-9.76,3.63t-3.44,10.33a14.78,14.78,0,0,0,1.58,6.91,10.73,10.73,0,0,0,4.47,4.62,14.16,14.16,0,0,0,6.86,1.58,12.28,12.28,0,0,0,7.87-2.42,12.11,12.11,0,0,0,4.09-7.1Z"/><path class="cls-1" d="M579.24,248.77l-.86-4.87a15.8,15.8,0,0,1-5.83,4.4,18.77,18.77,0,0,1-7.27,1.33,23.45,23.45,0,0,1-5.72-.64,17.18,17.18,0,0,1-4.94-2.15,14.61,14.61,0,0,1-4.12-3.92,16.51,16.51,0,0,1-2.49-5.24,20.6,20.6,0,0,1-.76-5.4,23,23,0,0,1,1-7,16.48,16.48,0,0,1,3.16-5.74,15.9,15.9,0,0,1,5.67-4.16,19.63,19.63,0,0,1,8-1.65q7,0,11.44,2.92a13.61,13.61,0,0,1,5.73,8.7H577a9.9,9.9,0,0,0-4-5.43,16.16,16.16,0,0,0-14.51-.14,11.13,11.13,0,0,0-4.55,4.78,15.67,15.67,0,0,0-1.6,7.25q0,6.45,3.56,9.92t9.73,3.47a13.45,13.45,0,0,0,8.83-2.85,10.85,10.85,0,0,0,3.94-7.63H567.19v-4.4h15.69v18.41Z"/><path class="cls-1" d="M589.33,248.77V223.72h4.79v4.59h.09a11.21,11.21,0,0,1,3.87-4.16,9.24,9.24,0,0,1,4.74-1.3,10.06,10.06,0,0,1,2.73.29v5.17a12,12,0,0,0-3.4-.48,8,8,0,0,0-5.79,2.1,8.26,8.26,0,0,0-2.24,6.12v12.72Z"/><path class="cls-1" d="M607.7,236.24a12.94,12.94,0,0,1,3.89-9.66q3.85-3.68,10.65-3.73t10.66,3.73a14,14,0,0,1,0,19.33q-3.82,3.68-10.66,3.72t-10.69-3.75A13,13,0,0,1,607.7,236.24Zm5.07,0a9.49,9.49,0,0,0,2.55,6.82,10.65,10.65,0,0,0,13.85,0,9.52,9.52,0,0,0,2.53-6.82,8.75,8.75,0,0,0-9.46-9.37,9.24,9.24,0,0,0-6.92,2.56A9.48,9.48,0,0,0,612.77,236.24Z"/><path class="cls-1" d="M661.93,248.77V245h-.1a9.8,9.8,0,0,1-4.28,3.58,14.14,14.14,0,0,1-5.52,1c-3.35,0-5.94-.75-7.77-2.27a8,8,0,0,1-2.75-6.57V223.72h4.78v16.11a5.25,5.25,0,0,0,1.82,4.31c1.21,1,3.07,1.48,5.59,1.48a8.85,8.85,0,0,0,5.84-2,6.91,6.91,0,0,0,2.39-5.5V223.72h4.78v25.05Z"/><path class="cls-1" d="M672.54,258.43V223.72h4.79v3.49h.09a8.86,8.86,0,0,1,3.92-2.94,14.12,14.12,0,0,1,5.6-1.13,15,15,0,0,1,6.88,1.58,11.92,11.92,0,0,1,4.93,4.59,14.72,14.72,0,0,1,0,14.18,11.73,11.73,0,0,1-4.93,4.59,15.09,15.09,0,0,1-6.88,1.55,14.22,14.22,0,0,1-5.55-1.07,9.08,9.08,0,0,1-4-3h-.09v12.86Zm13.78-31.27a9.06,9.06,0,0,0-6.8,2.51,9.4,9.4,0,0,0-2.48,6.72,9.58,9.58,0,0,0,16,6.81,10.45,10.45,0,0,0,.09-13.48A8.83,8.83,0,0,0,686.32,227.16Z"/></g></g></svg>