<svg xmlns="http://www.w3.org/2000/svg" viewBox="0 0 927.58 162.82"><defs><style>.cls-1{fill:#28235d;}.cls-2{fill:#00a3ad;}</style></defs><title>Asset 1</title><g id="Layer_2" data-name="Layer 2"><g id="Layer_1-2" data-name="Layer 1"><path class="cls-1" d="M382.34,55.27H341.68L334.47,69.5H318L353.69,2.21h16.82L406.18,69.5H389.55Zm-6.44-12.5L362,15.38,348,42.77Z"/><path class="cls-1" d="M475,63.15l8.65,9.33-8.36,7.21L464.91,68.44A57.51,57.51,0,0,1,445,71.61c-26.24,0-42.78-13.26-42.78-35.76S418.77.09,445,.09s42.78,13.27,42.78,35.76C487.79,47.68,483.17,57,475,63.15Zm-20.47-5.86-8.94-9.61L454,40.37,465,52.29c4.62-3.75,7.12-9.32,7.12-16.44,0-14.41-10.48-22.49-27.11-22.49S417.9,21.44,417.9,35.85s10.38,22.5,27.11,22.5A42,42,0,0,0,454.53,57.29Z"/><path class="cls-1" d="M571.22,2.21V37.78c0,20.18-13.37,33.83-37.78,33.83S495.66,58,495.66,37.78V2.21H511V36.62c0,13.46,7.88,21.53,22.4,21.53s22.4-8.07,22.4-21.53V2.21Z"/><path class="cls-1" d="M634.75,55.27H594.09L586.88,69.5H570.44L606.1,2.21h16.83L658.59,69.5H642Zm-6.44-12.5L614.37,15.38,600.43,42.77Z"/><path class="cls-1" d="M729.72,56.23V69.5h-63V2.21h15.39v54Z"/><path class="cls-1" d="M739.52,69.5V2.21H754.9V69.5Z"/><path class="cls-1" d="M842,49.12c0,13.26-12.6,22.49-36.43,22.49-17,0-30.86-4.8-41.15-13.55l8.84-10.48c8.27,7.59,18.94,11.15,32.69,11.15s20.57-2.59,20.57-8.17-6.92-7.11-22.4-8.46C784.89,40.47,767,36.24,767,21.82c0-14,15-21.73,35.76-21.73,14.7,0,27.39,3.66,36,10.29l-8.46,10.67c-7.4-5.67-16.53-8-27.49-8.07-9.14-.1-20.29,1.53-20.29,7.68,0,5.77,9.62,6.35,23,7.41C826.89,29.8,842,34.32,842,49.12Z"/><path class="cls-2" d="M390,143.15c0,12.31-9.71,18.46-25.28,18.46H318V94.32h44.8c13.65,0,23.35,5.77,23.35,17.11,0,7.69-4.51,14.8-14.42,15.57C382.2,127.68,390,131.9,390,143.15Zm-64-19.61h35.66c9.62,0,16.44-2.5,16.44-11s-6.83-11-16.44-11H326Zm55.66,19c0-8.37-6.83-11.73-18.36-11.73H326V154.3h37.3C374.8,154.3,381.63,150.84,381.63,142.58Z"/><path class="cls-2" d="M470.07,161.61l-22.31-25.76h-32v25.76h-8.17V94.32h45.18c15,0,25.76,7.5,25.76,20.77,0,11.73-8.45,19-20.86,20.47l23,26.05Zm-17.88-33.26c10.86,0,18.07-4.13,18.07-13.26s-7.21-13.27-18.07-13.27H415.66v26.53Z"/><path class="cls-2" d="M555.81,143.54H510.44l-9.81,18.08h-8.94l37-67.3h9l37,67.29h-9.13Zm-3.94-7.3-18.75-34.51-18.74,34.51Z"/><path class="cls-2" d="M649.71,154.12v7.49H584.63V94.32h64.12v7.5h-56v21.82h47.48v7.5H592.71v23Z"/><path class="cls-2" d="M748.91,94.32v67.29h-8.08V105.67L706.61,147.1H706l-34.23-41.43v55.94h-7.88V94.32h8.85l33.74,41.15,33.74-41.15Z"/><path class="cls-2" d="M825.62,143.54H780.25l-9.81,18.08H761.5l37-67.29h9l37,67.29h-9.13Zm-3.94-7.3-18.74-34.51-18.75,34.51Z"/><path class="cls-2" d="M917,161.62l-22.3-25.77h-32v25.77h-8.17V94.33H899.7c15,0,25.76,7.5,25.76,20.76,0,11.73-8.46,19-20.86,20.48l23,26.05Zm-17.88-33.26c10.86,0,18.07-4.14,18.07-13.27s-7.21-13.26-18.07-13.26H862.59v26.53Z"/><path class="cls-1" d="M68.83,38.65,98.22,92.39H39.45Zm-50,90.54L0,162.82H137.67l-18.8-33.63ZM233.86,94.11q-5.43-8.86-16.81-16.28a42.19,42.19,0,0,0,10.46-13.37,37.16,37.16,0,0,0,3.31-16,41.6,41.6,0,0,0-3-15.36,39.81,39.81,0,0,0-8.87-13.5A59.84,59.84,0,0,0,197.2,5.16,73.83,73.83,0,0,0,169.66,0H95.31l20.4,36.8h51.57a17.94,17.94,0,0,1,11.91,4A12.28,12.28,0,0,1,184,50.56a11.41,11.41,0,0,1-4.24,9.14q-4.23,3.57-11.38,3.57h-38l18.94,34.15H175q7.68,0,12.44,4a12.29,12.29,0,0,1,4.77,9.8,13.56,13.56,0,0,1-4.77,10.59A17.24,17.24,0,0,1,175.49,126H165.18l20.1,36.25a80.11,80.11,0,0,0,23.43-5.68q14.7-6.21,22.64-17.2a41.69,41.69,0,0,0,7.94-25A38,38,0,0,0,233.86,94.11Z"/></g></g></svg>